<svg xmlns="http://www.w3.org/2000/svg" xmlns:xlink="http://www.w3.org/1999/xlink" width="1920" zoomAndPan="magnify" viewBox="0 0 1440 809.999993" height="1080" preserveAspectRatio="xMidYMid meet" version="1.0"><defs><g/><clipPath id="29d719b611"><path d="M 668 285.839844 L 744.636719 285.839844 L 744.636719 334.589844 L 668 334.589844 Z M 668 285.839844 " clip-rule="nonzero"/></clipPath><clipPath id="472561eff4"><path d="M 653.886719 297 L 687 297 L 687 300 L 653.886719 300 Z M 653.886719 297 " clip-rule="nonzero"/></clipPath><clipPath id="0eec7e5eb6"><path d="M 751 308 L 811.628906 308 L 811.628906 364 L 751 364 Z M 751 308 " clip-rule="nonzero"/></clipPath><clipPath id="620a7cf866"><path d="M 631.628906 232 L 794 232 L 794 388.316406 L 631.628906 388.316406 Z M 631.628906 232 " clip-rule="nonzero"/></clipPath><clipPath id="6fa29aa08c"><path d="M 515 297 L 557 297 L 557 334.589844 L 515 334.589844 Z M 515 297 " clip-rule="nonzero"/></clipPath><clipPath id="2e5b28d3ca"><path d="M 880.628906 285.839844 L 930.878906 285.839844 L 930.878906 334.589844 L 880.628906 334.589844 Z M 880.628906 285.839844 " clip-rule="nonzero"/></clipPath><clipPath id="99b5efa2b4"><path d="M 694.804688 121.882812 L 748.804688 121.882812 L 748.804688 170.632812 L 694.804688 170.632812 Z M 694.804688 121.882812 " clip-rule="nonzero"/></clipPath></defs><rect x="-144" width="1728" fill="#ffffff" y="-80.999999" height="971.999992" fill-opacity="1"/><rect x="-144" width="1728" fill="#bdc9c7" y="-80.999999" height="971.999992" fill-opacity="1"/><g clip-path="url(#29d719b611)"><path fill="#404559" d="M 744.21875 310.117188 L 736.929688 297.207031 L 736.90625 297.171875 C 736.210938 296.027344 735.035156 295.347656 733.765625 295.347656 L 724.828125 295.347656 L 725.453125 290.816406 C 725.625 289.5625 725.25 288.296875 724.417969 287.34375 C 723.585938 286.386719 722.386719 285.839844 721.121094 285.839844 L 677.921875 285.839844 C 677.253906 285.839844 676.714844 286.382812 676.714844 287.046875 C 676.714844 287.714844 677.253906 288.253906 677.921875 288.253906 L 721.121094 288.253906 C 721.695312 288.253906 722.222656 288.492188 722.597656 288.925781 C 722.976562 289.359375 723.144531 289.914062 723.0625 290.484375 L 722.390625 295.347656 L 722.355469 295.347656 L 718.386719 323.335938 L 718.382812 323.367188 C 718.296875 324.128906 718.238281 324.703125 718.199219 325.140625 L 696.972656 325.140625 C 696.386719 321.285156 693.046875 318.316406 689.027344 318.316406 C 685.007812 318.316406 681.671875 321.285156 681.085938 325.140625 L 673.367188 325.140625 C 672.792969 325.140625 672.265625 324.902344 671.890625 324.46875 C 671.511719 324.035156 671.347656 323.480469 671.425781 322.910156 L 672.246094 316.964844 C 672.335938 316.304688 671.875 315.695312 671.214844 315.601562 C 670.554688 315.511719 669.949219 315.972656 669.855469 316.632812 L 669.035156 322.582031 C 668.863281 323.835938 669.238281 325.101562 670.070312 326.054688 C 670.902344 327.007812 672.105469 327.554688 673.367188 327.554688 L 681.085938 327.554688 C 681.671875 331.414062 685.011719 334.382812 689.03125 334.382812 C 693.050781 334.382812 696.386719 331.414062 696.972656 327.554688 L 722.207031 327.554688 C 722.789062 331.414062 726.128906 334.382812 730.148438 334.382812 C 734.167969 334.382812 737.507812 331.414062 738.089844 327.554688 L 739.65625 327.554688 C 741.703125 327.554688 743.375 325.785156 743.417969 323.589844 L 744.816406 312.476562 L 744.824219 312.324219 C 744.824219 311.539062 744.613281 310.777344 744.21875 310.121094 Z M 694.648438 326.347656 C 694.648438 326.761719 694.601562 327.167969 694.515625 327.554688 C 693.964844 330.078125 691.714844 331.96875 689.027344 331.96875 C 686.34375 331.96875 684.09375 330.074219 683.539062 327.554688 C 683.453125 327.164062 683.410156 326.761719 683.410156 326.347656 C 683.410156 325.933594 683.453125 325.53125 683.539062 325.140625 C 684.09375 322.621094 686.34375 320.730469 689.027344 320.730469 C 691.714844 320.730469 693.964844 322.621094 694.515625 325.140625 C 694.601562 325.53125 694.648438 325.933594 694.648438 326.347656 Z M 735.769531 326.347656 C 735.769531 326.761719 735.722656 327.167969 735.636719 327.554688 C 735.082031 330.078125 732.832031 331.96875 730.148438 331.96875 C 727.460938 331.96875 725.210938 330.074219 724.660156 327.554688 C 724.574219 327.164062 724.527344 326.761719 724.527344 326.347656 C 724.527344 325.933594 724.574219 325.53125 724.660156 325.140625 C 725.210938 322.621094 727.460938 320.730469 730.148438 320.730469 C 732.832031 320.730469 735.082031 322.621094 735.636719 325.140625 C 735.722656 325.53125 735.769531 325.933594 735.769531 326.347656 Z M 741.011719 323.355469 L 741.003906 323.507812 C 741.003906 324.410156 740.398438 325.140625 739.652344 325.140625 L 738.089844 325.140625 C 737.507812 321.285156 734.167969 318.316406 730.148438 318.316406 C 726.128906 318.316406 722.789062 321.285156 722.207031 325.140625 L 720.710938 325.140625 L 724.496094 297.761719 L 733.765625 297.761719 C 734.183594 297.761719 734.585938 298.003906 734.839844 298.414062 L 742.125 311.320312 L 742.148438 311.359375 C 742.308594 311.621094 742.398438 311.933594 742.410156 312.257812 L 741.015625 323.355469 Z M 741.011719 323.355469 " fill-opacity="1" fill-rule="nonzero"/></g><path fill="#404559" d="M 733.652344 300.3125 C 733.34375 299.707031 732.730469 299.328125 732.050781 299.328125 L 727.175781 299.328125 C 726.277344 299.328125 725.507812 300.003906 725.390625 300.898438 L 724.339844 309.019531 C 724.273438 309.535156 724.429688 310.050781 724.773438 310.441406 C 725.113281 310.828125 725.605469 311.050781 726.125 311.050781 L 736.179688 311.050781 C 736.8125 311.050781 737.382812 310.730469 737.714844 310.191406 C 738.042969 309.65625 738.070312 308.996094 737.785156 308.4375 Z M 726.820312 308.640625 L 727.714844 301.742188 L 731.671875 301.742188 L 735.179688 308.640625 Z M 726.820312 308.640625 " fill-opacity="1" fill-rule="nonzero"/><g clip-path="url(#472561eff4)"><path fill="#404559" d="M 686.265625 298.5625 C 686.265625 297.898438 685.722656 297.355469 685.058594 297.355469 L 655.089844 297.355469 C 654.425781 297.355469 653.886719 297.898438 653.886719 298.5625 C 653.886719 299.230469 654.425781 299.769531 655.089844 299.769531 L 685.058594 299.769531 C 685.722656 299.769531 686.265625 299.230469 686.265625 298.5625 Z M 686.265625 298.5625 " fill-opacity="1" fill-rule="nonzero"/></g><path fill="#404559" d="M 693.167969 304.289062 L 663.199219 304.289062 C 662.535156 304.289062 661.996094 304.832031 661.996094 305.496094 C 661.996094 306.164062 662.535156 306.703125 663.199219 306.703125 L 693.167969 306.703125 C 693.832031 306.703125 694.375 306.164062 694.375 305.496094 C 694.375 304.832031 693.832031 304.289062 693.167969 304.289062 Z M 693.167969 304.289062 " fill-opacity="1" fill-rule="nonzero"/><path fill="#404559" d="M 682.597656 312.429688 C 682.597656 311.765625 682.058594 311.222656 681.390625 311.222656 L 658.757812 311.222656 C 658.09375 311.222656 657.550781 311.765625 657.550781 312.429688 C 657.550781 313.097656 658.09375 313.636719 658.757812 313.636719 L 681.390625 313.636719 C 682.058594 313.636719 682.597656 313.097656 682.597656 312.429688 Z M 682.597656 312.429688 " fill-opacity="1" fill-rule="nonzero"/><path fill="#404559" d="M 663.460938 293.355469 L 693.425781 293.355469 C 694.09375 293.355469 694.632812 292.816406 694.632812 292.148438 C 694.632812 291.484375 694.09375 290.945312 693.425781 290.945312 L 663.460938 290.945312 C 662.792969 290.945312 662.253906 291.484375 662.253906 292.148438 C 662.253906 292.816406 662.792969 293.355469 663.460938 293.355469 Z M 663.460938 293.355469 " fill-opacity="1" fill-rule="nonzero"/><path fill="#404559" d="M 786.414062 362.601562 L 810.59375 309.550781 L 752.566406 315.140625 L 786.414062 362.601562 L 810.59375 309.550781 L 752.566406 315.140625 L 786.414062 362.601562 " fill-opacity="1" fill-rule="nonzero"/><g clip-path="url(#0eec7e5eb6)"><path fill="#404559" d="M 754.355469 315.953125 L 786.230469 360.644531 L 808.988281 310.695312 Z M 786.414062 363.582031 C 786.3125 363.582031 786.207031 363.566406 786.105469 363.53125 C 785.988281 363.496094 785.886719 363.433594 785.789062 363.359375 C 785.71875 363.296875 785.65625 363.230469 785.609375 363.160156 L 751.78125 315.726562 C 751.71875 315.648438 751.675781 315.566406 751.640625 315.476562 C 751.601562 315.367188 751.578125 315.25 751.578125 315.140625 C 751.578125 314.996094 751.613281 314.855469 751.667969 314.726562 C 751.730469 314.609375 751.808594 314.492188 751.917969 314.402344 C 752.007812 314.320312 752.109375 314.257812 752.226562 314.214844 C 752.308594 314.183594 752.398438 314.167969 752.488281 314.160156 L 810.484375 308.574219 C 810.574219 308.5625 810.664062 308.566406 810.753906 308.582031 C 810.875 308.601562 810.992188 308.644531 811.097656 308.707031 C 811.214844 308.773438 811.3125 308.871094 811.386719 308.972656 C 811.46875 309.085938 811.53125 309.214844 811.558594 309.359375 C 811.574219 309.421875 811.578125 309.492188 811.578125 309.550781 C 811.578125 309.609375 811.574219 309.65625 811.566406 309.710938 C 811.550781 309.800781 811.523438 309.890625 811.484375 309.972656 L 787.316406 362.996094 C 787.285156 363.078125 787.234375 363.160156 787.171875 363.230469 C 787.097656 363.320312 787.007812 363.394531 786.910156 363.449219 C 786.789062 363.523438 786.648438 363.566406 786.511719 363.582031 L 786.414062 363.582031 " fill-opacity="1" fill-rule="nonzero"/></g><g clip-path="url(#620a7cf866)"><path fill="#404559" d="M 743.539062 379.132812 C 743.539062 379.132812 742.21875 379.808594 739.746094 381.078125 C 738.484375 381.65625 736.898438 382.34375 735.03125 383.128906 C 733.132812 383.8125 730.960938 384.679688 728.441406 385.363281 C 723.433594 386.824219 717.148438 388.074219 709.820312 388.308594 C 702.496094 388.59375 694.148438 387.640625 685.433594 384.996094 C 684.339844 384.671875 683.273438 384.246094 682.175781 383.875 C 681.625 383.679688 681.074219 383.488281 680.515625 383.289062 C 679.972656 383.074219 679.433594 382.828125 678.890625 382.601562 C 677.800781 382.125 676.691406 381.675781 675.597656 381.167969 C 674.515625 380.621094 673.429688 380.066406 672.332031 379.507812 C 668.027344 377.234375 663.679688 374.375 659.625 371.035156 C 655.558594 367.6875 651.714844 363.808594 648.265625 359.441406 C 644.832031 355.066406 641.800781 350.203125 639.296875 344.960938 C 638.023438 342.347656 636.960938 339.609375 635.957031 336.824219 C 635.515625 335.414062 635.03125 334.007812 634.644531 332.566406 C 634.269531 331.121094 633.847656 329.679688 633.5625 328.207031 C 632.289062 322.332031 631.613281 316.214844 631.765625 310.035156 C 631.910156 303.863281 632.71875 297.621094 634.367188 291.546875 C 636 285.46875 638.367188 279.550781 641.398438 273.972656 C 647.5 262.847656 656.351562 253.09375 666.917969 246.109375 C 669.535156 244.324219 672.292969 242.773438 675.074219 241.3125 C 677.898438 239.921875 680.75 238.613281 683.691406 237.566406 C 689.539062 235.40625 695.582031 233.917969 701.636719 233.179688 C 713.742188 231.664062 725.835938 232.9375 736.582031 236.457031 C 739.269531 237.332031 741.878906 238.324219 744.402344 239.433594 C 745.640625 240.019531 746.910156 240.535156 748.109375 241.175781 L 749.90625 242.105469 L 750.792969 242.566406 L 751.023438 242.683594 C 751.160156 242.765625 750.863281 242.589844 751.359375 242.882812 L 751.457031 242.945312 L 751.847656 243.171875 C 752.882812 243.785156 753.902344 244.394531 754.914062 244.992188 C 755.183594 245.152344 755.410156 245.269531 755.691406 245.46875 L 756.546875 246.039062 C 757.109375 246.425781 757.675781 246.8125 758.234375 247.195312 C 758.800781 247.582031 759.355469 247.96875 759.90625 248.347656 C 760.460938 248.734375 760.925781 249.132812 761.4375 249.523438 C 762.429688 250.308594 763.421875 251.089844 764.398438 251.867188 C 771.964844 258.347656 777.867188 265.554688 781.992188 272.589844 C 786.175781 279.601562 788.800781 286.296875 790.460938 291.9375 C 791.332031 294.757812 791.851562 297.339844 792.347656 299.578125 C 792.746094 301.832031 793.050781 303.765625 793.269531 305.328125 C 793.574219 308.484375 793.738281 310.171875 793.738281 310.171875 C 794.289062 315.890625 790.09375 320.972656 784.375 321.53125 C 778.660156 322.082031 773.574219 317.894531 773.015625 312.175781 C 773.003906 311.992188 772.988281 311.8125 772.984375 311.632812 L 772.953125 311.039062 C 772.953125 311.039062 772.90625 309.765625 772.804688 307.375 C 772.699219 306.183594 772.554688 304.710938 772.355469 302.980469 C 772.050781 301.265625 771.789062 299.273438 771.234375 297.097656 C 770.207031 292.730469 768.492188 287.480469 765.5625 281.886719 C 762.691406 276.265625 758.414062 270.445312 752.769531 265.003906 C 752.035156 264.355469 751.289062 263.703125 750.539062 263.039062 C 750.167969 262.71875 749.789062 262.351562 749.410156 262.0625 C 749.039062 261.773438 748.660156 261.484375 748.28125 261.1875 C 747.902344 260.890625 747.527344 260.59375 747.144531 260.300781 L 746.570312 259.84375 C 746.390625 259.699219 746.101562 259.519531 745.875 259.363281 C 744.890625 258.707031 743.90625 258.046875 742.90625 257.378906 L 742.527344 257.128906 L 742.4375 257.066406 C 742.871094 257.328125 742.507812 257.109375 742.582031 257.15625 L 742.410156 257.054688 L 741.714844 256.648438 C 741.253906 256.371094 740.792969 256.097656 740.324219 255.820312 C 739.394531 255.25 738.410156 254.792969 737.4375 254.265625 C 735.472656 253.265625 733.429688 252.355469 731.304688 251.53125 C 722.839844 248.230469 713.101562 246.632812 703.054688 247.328125 C 698.035156 247.652344 692.964844 248.617188 687.976562 250.144531 C 685.476562 250.882812 683.03125 251.851562 680.59375 252.878906 C 678.195312 253.980469 675.796875 255.152344 673.503906 256.539062 C 664.257812 261.945312 656.234375 269.820312 650.390625 279.195312 C 647.484375 283.898438 645.136719 288.949219 643.40625 294.203125 C 641.664062 299.460938 640.652344 304.929688 640.21875 310.421875 C 639.773438 315.910156 640.078125 321.421875 640.933594 326.789062 C 641.113281 328.136719 641.433594 329.460938 641.695312 330.785156 C 641.976562 332.105469 642.347656 333.40625 642.675781 334.710938 C 643.449219 337.285156 644.273438 339.835938 645.308594 342.289062 C 647.332031 347.207031 649.875 351.828125 652.824219 356.042969 C 655.792969 360.253906 659.160156 364.054688 662.792969 367.390625 C 666.4375 370.738281 670.257812 373.582031 674.308594 376.019531 C 675.324219 376.605469 676.320312 377.183594 677.320312 377.765625 C 678.324219 378.300781 679.359375 378.785156 680.371094 379.292969 C 680.875 379.542969 681.378906 379.804688 681.886719 380.039062 C 682.402344 380.25 682.914062 380.464844 683.429688 380.679688 C 684.457031 381.089844 685.457031 381.550781 686.480469 381.917969 C 694.664062 384.902344 702.675781 386.277344 709.8125 386.386719 C 716.949219 386.554688 723.191406 385.664062 728.214844 384.492188 C 730.742188 383.964844 732.933594 383.21875 734.859375 382.648438 C 736.75 381.964844 738.351562 381.375 739.640625 380.863281 C 742.183594 379.734375 743.539062 379.132812 743.539062 379.132812 " fill-opacity="1" fill-rule="nonzero"/></g><path fill="#404559" d="M 560.730469 302.96875 L 552.472656 296.890625 L 552.472656 289.644531 C 552.472656 288.507812 551.550781 287.589844 550.414062 287.589844 L 547.070312 287.589844 C 545.9375 287.589844 545.015625 288.511719 545.015625 289.644531 L 545.015625 291.40625 L 538.71875 286.773438 C 537.351562 285.765625 535.113281 285.765625 533.75 286.773438 L 511.738281 302.96875 C 510.371094 303.972656 510.074219 305.914062 511.082031 307.28125 L 511.691406 308.109375 C 512.695312 309.476562 514.636719 309.773438 516 308.765625 L 533.75 295.707031 C 535.113281 294.699219 537.351562 294.699219 538.71875 295.707031 L 556.464844 308.765625 C 557.832031 309.773438 559.769531 309.476562 560.773438 308.109375 L 561.386719 307.28125 C 562.390625 305.914062 562.09375 303.972656 560.730469 302.96875 Z M 560.730469 302.96875 " fill-opacity="1" fill-rule="nonzero"/><g clip-path="url(#6fa29aa08c)"><path fill="#404559" d="M 554.144531 309.902344 L 538.714844 298.496094 C 537.347656 297.488281 535.117188 297.488281 533.753906 298.496094 L 518.320312 309.902344 C 516.957031 310.910156 515.839844 312.386719 515.839844 313.1875 L 515.839844 329.722656 C 515.839844 332.40625 518.140625 334.585938 520.980469 334.585938 L 530.40625 334.585938 L 530.40625 319.957031 C 530.40625 318.828125 531.332031 317.90625 532.460938 317.90625 L 540.003906 317.90625 C 541.132812 317.90625 542.058594 318.828125 542.058594 319.957031 L 542.058594 334.585938 L 551.484375 334.585938 C 554.320312 334.585938 556.621094 332.40625 556.621094 329.722656 L 556.621094 313.1875 C 556.625 312.386719 555.507812 310.910156 554.144531 309.902344 Z M 554.144531 309.902344 " fill-opacity="1" fill-rule="nonzero"/></g><g clip-path="url(#2e5b28d3ca)"><path fill="#404559" d="M 886.894531 285.839844 L 886.269531 287.089844 L 892.835938 290.84375 C 892.835938 293.96875 891.582031 296.46875 888.769531 298.03125 L 882.207031 294.28125 L 881.894531 294.90625 C 883.457031 299.59375 886.582031 302.71875 892.835938 302.71875 C 894.398438 302.71875 899.085938 307.410156 901.585938 309.910156 L 906.585938 304.90625 C 904.085938 302.40625 898.460938 296.78125 898.460938 295.21875 C 898.460938 289.589844 896.898438 285.839844 886.894531 285.839844 Z M 925.96875 287.402344 L 919.714844 291.78125 L 919.089844 294.28125 L 900.960938 312.410156 L 898.460938 310.847656 L 897.210938 312.097656 C 897.210938 315.847656 892.835938 317.722656 890.957031 317.722656 L 880.644531 328.039062 C 880.644531 331.164062 884.082031 334.601562 887.207031 334.601562 L 897.523438 324.289062 C 897.523438 322.414062 899.398438 318.035156 903.148438 318.035156 L 904.398438 316.785156 L 902.835938 314.285156 L 920.964844 296.15625 L 923.464844 295.53125 L 927.84375 289.277344 Z M 910.339844 308.660156 L 905.335938 313.660156 C 909.089844 317.410156 914.089844 322.414062 914.089844 323.976562 C 914.089844 329.601562 915.652344 333.351562 925.65625 333.351562 L 926.28125 332.101562 L 919.714844 328.351562 C 919.714844 325.226562 920.964844 322.726562 923.777344 321.160156 L 930.34375 324.914062 L 930.65625 324.289062 C 929.09375 319.597656 925.96875 316.472656 919.714844 316.472656 C 918.152344 316.472656 914.089844 312.410156 910.339844 308.660156 Z M 910.339844 308.660156 " fill-opacity="1" fill-rule="nonzero"/></g><g clip-path="url(#99b5efa2b4)"><path fill="#404559" d="M 720.910156 121.988281 C 721.378906 121.84375 721.878906 121.84375 722.347656 121.988281 L 746.726562 129.511719 C 747.75 129.828125 748.445312 130.773438 748.445312 131.84375 L 748.445312 160.679688 C 748.445312 161.75 747.75 162.695312 746.726562 163.011719 L 722.347656 170.535156 C 721.878906 170.679688 721.378906 170.679688 720.910156 170.535156 L 696.527344 163.011719 C 695.507812 162.695312 694.808594 161.75 694.808594 160.679688 L 694.808594 131.84375 C 694.808594 130.773438 695.507812 129.828125 696.527344 129.511719 Z M 699.683594 133.640625 L 699.683594 158.882812 L 721.628906 165.652344 L 743.570312 158.882812 L 743.570312 133.640625 L 721.628906 126.871094 Z M 699.683594 133.640625 " fill-opacity="1" fill-rule="evenodd"/></g><path fill="#404559" d="M 731.609375 139.957031 L 709.667969 130.203125 L 711.648438 125.75 L 733.589844 135.5 Z M 731.609375 139.957031 " fill-opacity="1" fill-rule="evenodd"/><path fill="#404559" d="M 721.628906 139.28125 L 745.183594 130.800781 L 746.835938 135.390625 L 724.066406 143.585938 L 724.066406 166.949219 L 719.191406 166.949219 L 719.191406 143.585938 L 696.421875 135.390625 L 698.074219 130.800781 Z M 721.628906 139.28125 " fill-opacity="1" fill-rule="evenodd"/><g fill="#404559" fill-opacity="1"><g transform="translate(565.907555, 540.142471)"><g><path d="M 9.5625 0.703125 C 7.914062 0.703125 6.46875 0.414062 5.21875 -0.15625 C 3.976562 -0.726562 3.019531 -1.523438 2.34375 -2.546875 C 1.664062 -3.578125 1.328125 -4.769531 1.328125 -6.125 C 1.328125 -7.269531 1.566406 -8.304688 2.046875 -9.234375 C 2.523438 -10.171875 3.171875 -10.910156 3.984375 -11.453125 C 4.804688 -12.003906 5.710938 -12.28125 6.703125 -12.28125 C 7.617188 -12.28125 8.382812 -12.050781 9 -11.59375 C 9.625 -11.144531 10.015625 -10.519531 10.171875 -9.71875 C 8.828125 -9.71875 7.75 -9.359375 6.9375 -8.640625 C 6.132812 -7.921875 5.734375 -6.953125 5.734375 -5.734375 C 5.734375 -4.617188 6.070312 -3.722656 6.75 -3.046875 C 7.425781 -2.367188 8.320312 -2.03125 9.4375 -2.03125 C 10.8125 -2.03125 11.945312 -2.488281 12.84375 -3.40625 C 13.75 -4.332031 14.203125 -5.5 14.203125 -6.90625 C 14.203125 -8.125 13.863281 -9.28125 13.1875 -10.375 C 12.507812 -11.46875 11.492188 -12.796875 10.140625 -14.359375 C 8.734375 -15.960938 7.671875 -17.34375 6.953125 -18.5 C 6.242188 -19.65625 5.890625 -20.925781 5.890625 -22.3125 C 5.890625 -23.664062 6.265625 -24.878906 7.015625 -25.953125 C 7.773438 -27.035156 8.816406 -27.882812 10.140625 -28.5 C 11.460938 -29.125 12.957031 -29.4375 14.625 -29.4375 C 16.726562 -29.4375 18.410156 -28.941406 19.671875 -27.953125 C 20.929688 -26.972656 21.5625 -25.648438 21.5625 -23.984375 C 21.5625 -22.890625 21.285156 -22.003906 20.734375 -21.328125 C 20.191406 -20.648438 19.484375 -20.3125 18.609375 -20.3125 C 17.617188 -20.3125 16.820312 -20.71875 16.21875 -21.53125 C 16.71875 -21.894531 17.109375 -22.375 17.390625 -22.96875 C 17.679688 -23.570312 17.828125 -24.195312 17.828125 -24.84375 C 17.828125 -25.675781 17.578125 -26.335938 17.078125 -26.828125 C 16.585938 -27.328125 15.910156 -27.578125 15.046875 -27.578125 C 14.015625 -27.578125 13.164062 -27.203125 12.5 -26.453125 C 11.832031 -25.710938 11.5 -24.773438 11.5 -23.640625 C 11.5 -22.597656 11.796875 -21.628906 12.390625 -20.734375 C 12.992188 -19.835938 13.929688 -18.6875 15.203125 -17.28125 C 16.242188 -16.15625 17.082031 -15.191406 17.71875 -14.390625 C 18.363281 -13.585938 18.910156 -12.65625 19.359375 -11.59375 C 19.816406 -10.539062 20.046875 -9.40625 20.046875 -8.1875 C 20.046875 -6.519531 19.582031 -5.007812 18.65625 -3.65625 C 17.738281 -2.3125 16.476562 -1.25 14.875 -0.46875 C 13.28125 0.3125 11.507812 0.703125 9.5625 0.703125 Z M 9.5625 0.703125 "/></g></g></g><g fill="#404559" fill-opacity="1"><g transform="translate(588.132045, 540.142471)"><g><path d="M 5.578125 0.234375 C 3.648438 0.234375 2.15625 -0.265625 1.09375 -1.265625 C 0.03125 -2.265625 -0.5 -3.832031 -0.5 -5.96875 C -0.5 -7.757812 -0.148438 -9.734375 0.546875 -11.890625 C 1.242188 -14.046875 2.382812 -15.910156 3.96875 -17.484375 C 5.5625 -19.054688 7.578125 -19.84375 10.015625 -19.84375 C 12.878906 -19.84375 14.3125 -18.597656 14.3125 -16.109375 C 14.3125 -14.648438 13.894531 -13.304688 13.0625 -12.078125 C 12.226562 -10.859375 11.125 -9.878906 9.75 -9.140625 C 8.375 -8.398438 6.90625 -7.976562 5.34375 -7.875 C 5.289062 -7.09375 5.265625 -6.570312 5.265625 -6.3125 C 5.265625 -5.039062 5.484375 -4.175781 5.921875 -3.71875 C 6.367188 -3.269531 7.085938 -3.046875 8.078125 -3.046875 C 9.472656 -3.046875 10.671875 -3.367188 11.671875 -4.015625 C 12.679688 -4.660156 13.78125 -5.648438 14.96875 -6.984375 L 16.296875 -6.984375 C 13.410156 -2.171875 9.835938 0.234375 5.578125 0.234375 Z M 5.65625 -9.75 C 6.613281 -9.800781 7.53125 -10.140625 8.40625 -10.765625 C 9.28125 -11.390625 9.984375 -12.179688 10.515625 -13.140625 C 11.046875 -14.109375 11.3125 -15.125 11.3125 -16.1875 C 11.3125 -17.25 10.984375 -17.78125 10.328125 -17.78125 C 9.398438 -17.78125 8.484375 -16.960938 7.578125 -15.328125 C 6.679688 -13.691406 6.039062 -11.832031 5.65625 -9.75 Z M 5.65625 -9.75 "/></g></g></g><g fill="#404559" fill-opacity="1"><g transform="translate(603.104329, 540.142471)"><g><path d="M 14.078125 0.234375 C 12.492188 0.234375 11.332031 -0.1875 10.59375 -1.03125 C 9.851562 -1.875 9.484375 -2.921875 9.484375 -4.171875 C 9.484375 -4.710938 9.546875 -5.328125 9.671875 -6.015625 C 9.796875 -6.710938 9.929688 -7.382812 10.078125 -8.03125 C 10.222656 -8.6875 10.320312 -9.101562 10.375 -9.28125 C 10.582031 -10.1875 10.773438 -11.082031 10.953125 -11.96875 C 11.140625 -12.851562 11.234375 -13.570312 11.234375 -14.125 C 11.234375 -15.445312 10.765625 -16.109375 9.828125 -16.109375 C 9.148438 -16.109375 8.550781 -15.773438 8.03125 -15.109375 C 7.507812 -14.453125 7.09375 -13.585938 6.78125 -12.515625 L 4.140625 0 L -1.484375 0 L 2.65625 -19.5 L 8.265625 -19.5 L 7.84375 -17.46875 C 9.132812 -18.925781 10.65625 -19.65625 12.40625 -19.65625 C 13.726562 -19.65625 14.78125 -19.289062 15.5625 -18.5625 C 16.34375 -17.832031 16.734375 -16.726562 16.734375 -15.25 C 16.734375 -14.5 16.640625 -13.660156 16.453125 -12.734375 C 16.273438 -11.804688 16.015625 -10.679688 15.671875 -9.359375 C 15.460938 -8.554688 15.273438 -7.769531 15.109375 -7 C 14.941406 -6.226562 14.859375 -5.625 14.859375 -5.1875 C 14.859375 -4.664062 14.972656 -4.257812 15.203125 -3.96875 C 15.441406 -3.6875 15.847656 -3.546875 16.421875 -3.546875 C 17.203125 -3.546875 17.828125 -3.820312 18.296875 -4.375 C 18.765625 -4.9375 19.226562 -5.804688 19.6875 -6.984375 L 21.328125 -6.984375 C 20.367188 -4.117188 19.257812 -2.195312 18 -1.21875 C 16.738281 -0.25 15.429688 0.234375 14.078125 0.234375 Z M 14.078125 0.234375 "/></g></g></g><g fill="#404559" fill-opacity="1"><g transform="translate(622.794449, 540.142471)"><g><path d="M 4.6875 0.234375 C 3.195312 0.234375 1.957031 -0.269531 0.96875 -1.28125 C -0.0078125 -2.300781 -0.5 -3.890625 -0.5 -6.046875 C -0.5 -7.972656 -0.117188 -9.992188 0.640625 -12.109375 C 1.410156 -14.222656 2.554688 -16.015625 4.078125 -17.484375 C 5.597656 -18.953125 7.410156 -19.6875 9.515625 -19.6875 C 10.578125 -19.6875 11.367188 -19.503906 11.890625 -19.140625 C 12.410156 -18.785156 12.671875 -18.304688 12.671875 -17.703125 L 12.671875 -17.546875 L 14.59375 -26.515625 L 20.359375 -27.296875 L 15.875 -6.234375 C 15.769531 -5.847656 15.71875 -5.429688 15.71875 -4.984375 C 15.71875 -4.472656 15.835938 -4.101562 16.078125 -3.875 C 16.328125 -3.65625 16.738281 -3.546875 17.3125 -3.546875 C 18.039062 -3.546875 18.671875 -3.859375 19.203125 -4.484375 C 19.734375 -5.109375 20.15625 -5.941406 20.46875 -6.984375 L 22.109375 -6.984375 C 20.523438 -2.328125 17.914062 0 14.28125 0 C 13.207031 0 12.335938 -0.285156 11.671875 -0.859375 C 11.015625 -1.429688 10.609375 -2.265625 10.453125 -3.359375 C 9.773438 -2.316406 8.960938 -1.457031 8.015625 -0.78125 C 7.066406 -0.101562 5.957031 0.234375 4.6875 0.234375 Z M 7.21875 -3.546875 C 7.84375 -3.546875 8.472656 -3.832031 9.109375 -4.40625 C 9.742188 -4.976562 10.175781 -5.769531 10.40625 -6.78125 L 10.40625 -6.984375 L 12.328125 -15.90625 C 12.085938 -16.820312 11.550781 -17.28125 10.71875 -17.28125 C 9.6875 -17.28125 8.753906 -16.675781 7.921875 -15.46875 C 7.085938 -14.257812 6.4375 -12.800781 5.96875 -11.09375 C 5.5 -9.394531 5.265625 -7.894531 5.265625 -6.59375 C 5.265625 -5.289062 5.453125 -4.457031 5.828125 -4.09375 C 6.203125 -3.726562 6.664062 -3.546875 7.21875 -3.546875 Z M 7.21875 -3.546875 "/></g></g></g><g fill="#404559" fill-opacity="1"><g transform="translate(643.264377, 540.142471)"><g/></g></g><g fill="#404559" fill-opacity="1"><g transform="translate(651.725274, 540.142471)"><g><path d="M 3.859375 0.234375 C 2.609375 0.234375 1.597656 -0.15625 0.828125 -0.9375 C 0.0664062 -1.71875 -0.3125 -2.890625 -0.3125 -4.453125 C -0.3125 -5.097656 -0.207031 -5.941406 0 -6.984375 L 2.65625 -19.5 L 8.265625 -19.5 L 5.453125 -6.234375 C 5.378906 -5.847656 5.34375 -5.484375 5.34375 -5.140625 C 5.34375 -4.078125 5.734375 -3.546875 6.515625 -3.546875 C 7.242188 -3.546875 7.867188 -3.847656 8.390625 -4.453125 C 8.910156 -5.066406 9.328125 -5.910156 9.640625 -6.984375 L 12.28125 -19.5 L 17.90625 -19.5 L 15.09375 -6.234375 C 14.988281 -5.847656 14.9375 -5.429688 14.9375 -4.984375 C 14.9375 -4.472656 15.054688 -4.101562 15.296875 -3.875 C 15.546875 -3.65625 15.957031 -3.546875 16.53125 -3.546875 C 17.257812 -3.546875 17.890625 -3.859375 18.421875 -4.484375 C 18.960938 -5.109375 19.382812 -5.941406 19.6875 -6.984375 L 21.328125 -6.984375 C 20.367188 -4.171875 19.179688 -2.265625 17.765625 -1.265625 C 16.347656 -0.265625 14.925781 0.234375 13.5 0.234375 C 12.375 0.234375 11.476562 -0.078125 10.8125 -0.703125 C 10.15625 -1.328125 9.765625 -2.25 9.640625 -3.46875 C 8.753906 -2.039062 7.820312 -1.066406 6.84375 -0.546875 C 5.863281 -0.0234375 4.867188 0.234375 3.859375 0.234375 Z M 3.859375 0.234375 "/></g></g></g><g fill="#404559" fill-opacity="1"><g transform="translate(671.415394, 540.142471)"><g><path d="M 4.453125 0.234375 C 3.203125 0.234375 2.144531 -0.00390625 1.28125 -0.484375 C 0.425781 -0.960938 -0.207031 -1.585938 -0.625 -2.359375 C -1.039062 -3.128906 -1.25 -3.929688 -1.25 -4.765625 C -1.25 -5.617188 -1.046875 -6.363281 -0.640625 -7 C -0.234375 -7.632812 0.25 -8.097656 0.8125 -8.390625 C 1.832031 -10.203125 2.71875 -12.035156 3.46875 -13.890625 C 4.226562 -15.753906 4.941406 -17.765625 5.609375 -19.921875 L 11.390625 -20.703125 C 11.515625 -17.378906 11.734375 -13.78125 12.046875 -9.90625 C 12.179688 -8.34375 12.25 -7.210938 12.25 -6.515625 C 12.25 -5.910156 12.195312 -5.414062 12.09375 -5.03125 C 13.3125 -5.726562 14.242188 -6.378906 14.890625 -6.984375 L 16.53125 -6.984375 C 14.875 -5.054688 12.882812 -3.429688 10.5625 -2.109375 C 9.8125 -1.296875 8.882812 -0.703125 7.78125 -0.328125 C 6.675781 0.046875 5.566406 0.234375 4.453125 0.234375 Z M 3.203125 -2.84375 C 4.160156 -2.84375 4.960938 -3.128906 5.609375 -3.703125 C 6.265625 -4.273438 6.59375 -5.195312 6.59375 -6.46875 C 6.59375 -7.25 6.515625 -8.34375 6.359375 -9.75 C 6.097656 -12.71875 5.925781 -14.707031 5.84375 -15.71875 C 5.21875 -13.664062 4.164062 -11.207031 2.6875 -8.34375 C 3.289062 -8.03125 3.59375 -7.578125 3.59375 -6.984375 C 3.59375 -6.484375 3.425781 -6.035156 3.09375 -5.640625 C 2.769531 -5.253906 2.363281 -5.0625 1.875 -5.0625 C 1.320312 -5.0625 0.96875 -5.234375 0.8125 -5.578125 C 0.8125 -4.640625 1 -3.945312 1.375 -3.5 C 1.757812 -3.0625 2.367188 -2.84375 3.203125 -2.84375 Z M 3.203125 -2.84375 "/></g></g></g><g fill="#404559" fill-opacity="1"><g transform="translate(686.309699, 540.142471)"><g/></g></g><g fill="#404559" fill-opacity="1"><g transform="translate(694.770596, 540.142471)"><g><path d="M 6.078125 9.75 C 4.835938 9.75 3.800781 9.421875 2.96875 8.765625 C 2.132812 8.117188 1.71875 7.1875 1.71875 5.96875 C 1.71875 4.488281 2.3125 3.296875 3.5 2.390625 C 4.695312 1.492188 6.222656 0.75 8.078125 0.15625 L 8.546875 -1.953125 C 7.785156 -1.117188 7.015625 -0.546875 6.234375 -0.234375 C 5.453125 0.078125 4.660156 0.234375 3.859375 0.234375 C 2.609375 0.234375 1.597656 -0.15625 0.828125 -0.9375 C 0.0664062 -1.71875 -0.3125 -2.890625 -0.3125 -4.453125 C -0.3125 -5.097656 -0.207031 -5.941406 0 -6.984375 L 2.65625 -19.5 L 8.265625 -19.5 L 5.453125 -6.234375 C 5.378906 -5.921875 5.34375 -5.597656 5.34375 -5.265625 C 5.34375 -4.117188 5.734375 -3.546875 6.515625 -3.546875 C 7.191406 -3.546875 7.789062 -3.835938 8.3125 -4.421875 C 8.832031 -5.003906 9.25 -5.78125 9.5625 -6.75 L 12.28125 -19.5 L 17.90625 -19.5 L 14.046875 -1.40625 C 15.285156 -1.820312 16.28125 -2.445312 17.03125 -3.28125 C 17.789062 -4.113281 18.429688 -5.347656 18.953125 -6.984375 L 20.59375 -6.984375 C 19.882812 -4.671875 18.929688 -2.972656 17.734375 -1.890625 C 16.546875 -0.804688 15.195312 -0.0703125 13.6875 0.3125 L 13.109375 3.125 C 12.585938 5.644531 11.6875 7.378906 10.40625 8.328125 C 9.132812 9.273438 7.691406 9.75 6.078125 9.75 Z M 5.1875 6.703125 C 5.625 6.703125 6.050781 6.398438 6.46875 5.796875 C 6.882812 5.203125 7.210938 4.347656 7.453125 3.234375 L 7.6875 2.109375 C 5.132812 3.046875 3.859375 4.148438 3.859375 5.421875 C 3.859375 5.753906 3.972656 6.050781 4.203125 6.3125 C 4.441406 6.570312 4.769531 6.703125 5.1875 6.703125 Z M 5.1875 6.703125 "/></g></g></g><g fill="#404559" fill-opacity="1"><g transform="translate(713.719898, 540.142471)"><g><path d="M 5.6875 0.15625 C 3.769531 0.15625 2.25 -0.335938 1.125 -1.328125 C 0.0078125 -2.316406 -0.546875 -3.875 -0.546875 -6 C -0.546875 -7.769531 -0.179688 -9.734375 0.546875 -11.890625 C 1.273438 -14.046875 2.441406 -15.910156 4.046875 -17.484375 C 5.660156 -19.054688 7.691406 -19.84375 10.140625 -19.84375 C 13.460938 -19.84375 15.125 -17.765625 15.125 -13.609375 L 15.125 -13.578125 C 15.207031 -13.546875 15.351562 -13.53125 15.5625 -13.53125 C 16.414062 -13.53125 17.398438 -13.753906 18.515625 -14.203125 C 19.640625 -14.660156 20.65625 -15.21875 21.5625 -15.875 L 21.921875 -14.8125 C 21.160156 -14.007812 20.175781 -13.328125 18.96875 -12.765625 C 17.757812 -12.210938 16.441406 -11.816406 15.015625 -11.578125 C 14.804688 -9.210938 14.269531 -7.144531 13.40625 -5.375 C 12.550781 -3.613281 11.445312 -2.25 10.09375 -1.28125 C 8.75 -0.320312 7.28125 0.15625 5.6875 0.15625 Z M 7.25 -3.359375 C 7.875 -3.359375 8.5 -3.710938 9.125 -4.421875 C 9.75 -5.140625 10.296875 -6.113281 10.765625 -7.34375 C 11.234375 -8.582031 11.570312 -9.957031 11.78125 -11.46875 C 11.070312 -11.625 10.71875 -12.171875 10.71875 -13.109375 C 10.71875 -14.171875 11.125 -14.867188 11.9375 -15.203125 C 11.882812 -16.066406 11.753906 -16.660156 11.546875 -16.984375 C 11.335938 -17.304688 10.972656 -17.46875 10.453125 -17.46875 C 9.597656 -17.46875 8.765625 -16.84375 7.953125 -15.59375 C 7.148438 -14.351562 6.5 -12.859375 6 -11.109375 C 5.507812 -9.367188 5.265625 -7.835938 5.265625 -6.515625 C 5.265625 -5.265625 5.40625 -4.425781 5.6875 -4 C 5.976562 -3.570312 6.5 -3.359375 7.25 -3.359375 Z M 7.25 -3.359375 "/></g></g></g><g fill="#404559" fill-opacity="1"><g transform="translate(730.836658, 540.142471)"><g><path d="M 3.859375 0.234375 C 2.609375 0.234375 1.597656 -0.15625 0.828125 -0.9375 C 0.0664062 -1.71875 -0.3125 -2.890625 -0.3125 -4.453125 C -0.3125 -5.097656 -0.207031 -5.941406 0 -6.984375 L 2.65625 -19.5 L 8.265625 -19.5 L 5.453125 -6.234375 C 5.378906 -5.847656 5.34375 -5.484375 5.34375 -5.140625 C 5.34375 -4.078125 5.734375 -3.546875 6.515625 -3.546875 C 7.242188 -3.546875 7.867188 -3.847656 8.390625 -4.453125 C 8.910156 -5.066406 9.328125 -5.910156 9.640625 -6.984375 L 12.28125 -19.5 L 17.90625 -19.5 L 15.09375 -6.234375 C 14.988281 -5.847656 14.9375 -5.429688 14.9375 -4.984375 C 14.9375 -4.472656 15.054688 -4.101562 15.296875 -3.875 C 15.546875 -3.65625 15.957031 -3.546875 16.53125 -3.546875 C 17.257812 -3.546875 17.890625 -3.859375 18.421875 -4.484375 C 18.960938 -5.109375 19.382812 -5.941406 19.6875 -6.984375 L 21.328125 -6.984375 C 20.367188 -4.171875 19.179688 -2.265625 17.765625 -1.265625 C 16.347656 -0.265625 14.925781 0.234375 13.5 0.234375 C 12.375 0.234375 11.476562 -0.078125 10.8125 -0.703125 C 10.15625 -1.328125 9.765625 -2.25 9.640625 -3.46875 C 8.753906 -2.039062 7.820312 -1.066406 6.84375 -0.546875 C 5.863281 -0.0234375 4.867188 0.234375 3.859375 0.234375 Z M 3.859375 0.234375 "/></g></g></g><g fill="#404559" fill-opacity="1"><g transform="translate(750.526778, 540.142471)"><g><path d="M 2.65625 -19.5 L 8.265625 -19.5 L 7.765625 -17.078125 C 8.648438 -17.859375 9.445312 -18.457031 10.15625 -18.875 C 10.875 -19.289062 11.648438 -19.5 12.484375 -19.5 C 13.316406 -19.5 13.972656 -19.210938 14.453125 -18.640625 C 14.929688 -18.066406 15.171875 -17.378906 15.171875 -16.578125 C 15.171875 -15.816406 14.921875 -15.148438 14.421875 -14.578125 C 13.929688 -14.015625 13.242188 -13.734375 12.359375 -13.734375 C 11.785156 -13.734375 11.398438 -13.867188 11.203125 -14.140625 C 11.015625 -14.410156 10.867188 -14.804688 10.765625 -15.328125 C 10.679688 -15.660156 10.597656 -15.90625 10.515625 -16.0625 C 10.441406 -16.21875 10.300781 -16.296875 10.09375 -16.296875 C 9.550781 -16.296875 9.09375 -16.1875 8.71875 -15.96875 C 8.34375 -15.75 7.851562 -15.363281 7.25 -14.8125 L 4.140625 0 L -1.484375 0 Z M 2.65625 -19.5 "/></g></g></g><g fill="#404559" fill-opacity="1"><g transform="translate(765.187148, 540.142471)"><g/></g></g><g fill="#404559" fill-opacity="1"><g transform="translate(773.648044, 540.142471)"><g><path d="M 4.6875 0.234375 C 3.195312 0.234375 1.957031 -0.269531 0.96875 -1.28125 C -0.0078125 -2.300781 -0.5 -3.890625 -0.5 -6.046875 C -0.5 -7.972656 -0.117188 -9.992188 0.640625 -12.109375 C 1.410156 -14.222656 2.554688 -16.015625 4.078125 -17.484375 C 5.597656 -18.953125 7.410156 -19.6875 9.515625 -19.6875 C 10.578125 -19.6875 11.367188 -19.503906 11.890625 -19.140625 C 12.410156 -18.785156 12.671875 -18.304688 12.671875 -17.703125 L 12.671875 -17.546875 L 14.59375 -26.515625 L 20.359375 -27.296875 L 15.875 -6.234375 C 15.769531 -5.847656 15.71875 -5.429688 15.71875 -4.984375 C 15.71875 -4.472656 15.835938 -4.101562 16.078125 -3.875 C 16.328125 -3.65625 16.738281 -3.546875 17.3125 -3.546875 C 18.039062 -3.546875 18.671875 -3.859375 19.203125 -4.484375 C 19.734375 -5.109375 20.15625 -5.941406 20.46875 -6.984375 L 22.109375 -6.984375 C 20.523438 -2.328125 17.914062 0 14.28125 0 C 13.207031 0 12.335938 -0.285156 11.671875 -0.859375 C 11.015625 -1.429688 10.609375 -2.265625 10.453125 -3.359375 C 9.773438 -2.316406 8.960938 -1.457031 8.015625 -0.78125 C 7.066406 -0.101562 5.957031 0.234375 4.6875 0.234375 Z M 7.21875 -3.546875 C 7.84375 -3.546875 8.472656 -3.832031 9.109375 -4.40625 C 9.742188 -4.976562 10.175781 -5.769531 10.40625 -6.78125 L 10.40625 -6.984375 L 12.328125 -15.90625 C 12.085938 -16.820312 11.550781 -17.28125 10.71875 -17.28125 C 9.6875 -17.28125 8.753906 -16.675781 7.921875 -15.46875 C 7.085938 -14.257812 6.4375 -12.800781 5.96875 -11.09375 C 5.5 -9.394531 5.265625 -7.894531 5.265625 -6.59375 C 5.265625 -5.289062 5.453125 -4.457031 5.828125 -4.09375 C 6.203125 -3.726562 6.664062 -3.546875 7.21875 -3.546875 Z M 7.21875 -3.546875 "/></g></g></g><g fill="#404559" fill-opacity="1"><g transform="translate(794.117972, 540.142471)"><g><path d="M 5.578125 0.234375 C 3.648438 0.234375 2.15625 -0.265625 1.09375 -1.265625 C 0.03125 -2.265625 -0.5 -3.832031 -0.5 -5.96875 C -0.5 -7.757812 -0.148438 -9.734375 0.546875 -11.890625 C 1.242188 -14.046875 2.382812 -15.910156 3.96875 -17.484375 C 5.5625 -19.054688 7.578125 -19.84375 10.015625 -19.84375 C 12.878906 -19.84375 14.3125 -18.597656 14.3125 -16.109375 C 14.3125 -14.648438 13.894531 -13.304688 13.0625 -12.078125 C 12.226562 -10.859375 11.125 -9.878906 9.75 -9.140625 C 8.375 -8.398438 6.90625 -7.976562 5.34375 -7.875 C 5.289062 -7.09375 5.265625 -6.570312 5.265625 -6.3125 C 5.265625 -5.039062 5.484375 -4.175781 5.921875 -3.71875 C 6.367188 -3.269531 7.085938 -3.046875 8.078125 -3.046875 C 9.472656 -3.046875 10.671875 -3.367188 11.671875 -4.015625 C 12.679688 -4.660156 13.78125 -5.648438 14.96875 -6.984375 L 16.296875 -6.984375 C 13.410156 -2.171875 9.835938 0.234375 5.578125 0.234375 Z M 5.65625 -9.75 C 6.613281 -9.800781 7.53125 -10.140625 8.40625 -10.765625 C 9.28125 -11.390625 9.984375 -12.179688 10.515625 -13.140625 C 11.046875 -14.109375 11.3125 -15.125 11.3125 -16.1875 C 11.3125 -17.25 10.984375 -17.78125 10.328125 -17.78125 C 9.398438 -17.78125 8.484375 -16.960938 7.578125 -15.328125 C 6.679688 -13.691406 6.039062 -11.832031 5.65625 -9.75 Z M 5.65625 -9.75 "/></g></g></g><g fill="#404559" fill-opacity="1"><g transform="translate(809.090256, 540.142471)"><g><path d="M 4.453125 0.234375 C 2.941406 0.234375 1.765625 -0.144531 0.921875 -0.90625 C 0.078125 -1.675781 -0.34375 -2.832031 -0.34375 -4.375 C -0.34375 -4.988281 -0.28125 -5.609375 -0.15625 -6.234375 L 2.65625 -19.5 L 8.265625 -19.5 L 5.453125 -6.234375 C 5.328125 -5.585938 5.265625 -5.125 5.265625 -4.84375 C 5.265625 -3.976562 5.707031 -3.546875 6.59375 -3.546875 C 7.789062 -3.546875 8.898438 -4.300781 9.921875 -5.8125 C 10.953125 -7.320312 11.78125 -9.113281 12.40625 -11.1875 C 13.03125 -13.269531 13.34375 -15.066406 13.34375 -16.578125 C 13.289062 -16.441406 13.117188 -16.34375 12.828125 -16.28125 C 12.546875 -16.21875 12.300781 -16.1875 12.09375 -16.1875 C 11.644531 -16.1875 11.296875 -16.394531 11.046875 -16.8125 C 10.804688 -17.226562 10.6875 -17.679688 10.6875 -18.171875 C 10.6875 -18.796875 10.882812 -19.300781 11.28125 -19.6875 C 11.6875 -20.082031 12.296875 -20.28125 13.109375 -20.28125 C 13.960938 -20.28125 14.582031 -19.960938 14.96875 -19.328125 C 15.363281 -18.691406 15.5625 -17.878906 15.5625 -16.890625 C 15.5625 -14.546875 15.15625 -12.039062 14.34375 -9.375 C 13.539062 -6.707031 12.304688 -4.4375 10.640625 -2.5625 C 8.984375 -0.695312 6.921875 0.234375 4.453125 0.234375 Z M 4.453125 0.234375 "/></g></g></g><g fill="#404559" fill-opacity="1"><g transform="translate(825.232242, 540.142471)"><g><path d="M 6.515625 -21.609375 C 5.648438 -21.609375 4.921875 -21.90625 4.328125 -22.5 C 3.734375 -23.101562 3.4375 -23.832031 3.4375 -24.6875 C 3.4375 -25.539062 3.734375 -26.273438 4.328125 -26.890625 C 4.921875 -27.503906 5.648438 -27.8125 6.515625 -27.8125 C 7.367188 -27.8125 8.101562 -27.503906 8.71875 -26.890625 C 9.332031 -26.273438 9.640625 -25.539062 9.640625 -24.6875 C 9.640625 -23.832031 9.332031 -23.101562 8.71875 -22.5 C 8.101562 -21.90625 7.367188 -21.609375 6.515625 -21.609375 Z M 3.859375 0.234375 C 2.609375 0.234375 1.597656 -0.15625 0.828125 -0.9375 C 0.0664062 -1.71875 -0.3125 -2.890625 -0.3125 -4.453125 C -0.3125 -5.097656 -0.207031 -5.941406 0 -6.984375 L 2.65625 -19.5 L 8.265625 -19.5 L 5.453125 -6.234375 C 5.347656 -5.847656 5.296875 -5.429688 5.296875 -4.984375 C 5.296875 -4.472656 5.421875 -4.101562 5.671875 -3.875 C 5.921875 -3.65625 6.332031 -3.546875 6.90625 -3.546875 C 7.65625 -3.546875 8.351562 -3.863281 9 -4.5 C 9.65625 -5.132812 10.125 -5.960938 10.40625 -6.984375 L 12.046875 -6.984375 C 11.085938 -4.171875 9.851562 -2.265625 8.34375 -1.265625 C 6.832031 -0.265625 5.335938 0.234375 3.859375 0.234375 Z M 3.859375 0.234375 "/></g></g></g><g fill="#404559" fill-opacity="1"><g transform="translate(835.642668, 540.142471)"><g><path d="M 5.578125 0.234375 C 3.648438 0.234375 2.15625 -0.265625 1.09375 -1.265625 C 0.03125 -2.265625 -0.5 -3.832031 -0.5 -5.96875 C -0.5 -7.757812 -0.144531 -9.734375 0.5625 -11.890625 C 1.28125 -14.046875 2.425781 -15.910156 4 -17.484375 C 5.570312 -19.054688 7.566406 -19.84375 9.984375 -19.84375 C 11.546875 -19.84375 12.65625 -19.503906 13.3125 -18.828125 C 13.976562 -18.160156 14.3125 -17.304688 14.3125 -16.265625 C 14.3125 -15.347656 14.113281 -14.644531 13.71875 -14.15625 C 13.332031 -13.664062 12.84375 -13.421875 12.25 -13.421875 C 11.800781 -13.421875 11.34375 -13.578125 10.875 -13.890625 C 11.1875 -14.742188 11.34375 -15.507812 11.34375 -16.1875 C 11.34375 -16.675781 11.25 -17.0625 11.0625 -17.34375 C 10.882812 -17.632812 10.613281 -17.78125 10.25 -17.78125 C 9.476562 -17.78125 8.703125 -17.144531 7.921875 -15.875 C 7.140625 -14.601562 6.5 -13.054688 6 -11.234375 C 5.507812 -9.410156 5.265625 -7.769531 5.265625 -6.3125 C 5.265625 -5.039062 5.484375 -4.175781 5.921875 -3.71875 C 6.367188 -3.269531 7.085938 -3.046875 8.078125 -3.046875 C 9.472656 -3.046875 10.671875 -3.367188 11.671875 -4.015625 C 12.679688 -4.660156 13.78125 -5.648438 14.96875 -6.984375 L 16.296875 -6.984375 C 13.410156 -2.171875 9.835938 0.234375 5.578125 0.234375 Z M 5.578125 0.234375 "/></g></g></g><g fill="#404559" fill-opacity="1"><g transform="translate(850.614952, 540.142471)"><g><path d="M 5.578125 0.234375 C 3.648438 0.234375 2.15625 -0.265625 1.09375 -1.265625 C 0.03125 -2.265625 -0.5 -3.832031 -0.5 -5.96875 C -0.5 -7.757812 -0.148438 -9.734375 0.546875 -11.890625 C 1.242188 -14.046875 2.382812 -15.910156 3.96875 -17.484375 C 5.5625 -19.054688 7.578125 -19.84375 10.015625 -19.84375 C 12.878906 -19.84375 14.3125 -18.597656 14.3125 -16.109375 C 14.3125 -14.648438 13.894531 -13.304688 13.0625 -12.078125 C 12.226562 -10.859375 11.125 -9.878906 9.75 -9.140625 C 8.375 -8.398438 6.90625 -7.976562 5.34375 -7.875 C 5.289062 -7.09375 5.265625 -6.570312 5.265625 -6.3125 C 5.265625 -5.039062 5.484375 -4.175781 5.921875 -3.71875 C 6.367188 -3.269531 7.085938 -3.046875 8.078125 -3.046875 C 9.472656 -3.046875 10.671875 -3.367188 11.671875 -4.015625 C 12.679688 -4.660156 13.78125 -5.648438 14.96875 -6.984375 L 16.296875 -6.984375 C 13.410156 -2.171875 9.835938 0.234375 5.578125 0.234375 Z M 5.65625 -9.75 C 6.613281 -9.800781 7.53125 -10.140625 8.40625 -10.765625 C 9.28125 -11.390625 9.984375 -12.179688 10.515625 -13.140625 C 11.046875 -14.109375 11.3125 -15.125 11.3125 -16.1875 C 11.3125 -17.25 10.984375 -17.78125 10.328125 -17.78125 C 9.398438 -17.78125 8.484375 -16.960938 7.578125 -15.328125 C 6.679688 -13.691406 6.039062 -11.832031 5.65625 -9.75 Z M 5.65625 -9.75 "/></g></g></g><g fill="#404559" fill-opacity="1"><g transform="translate(865.595209, 540.142471)"><g/></g></g><g fill="#404559" fill-opacity="1"><g transform="translate(612.999252, 594.65002)"><g><path d="M 3.859375 0.234375 C 2.609375 0.234375 1.597656 -0.15625 0.828125 -0.9375 C 0.0664062 -1.71875 -0.3125 -2.890625 -0.3125 -4.453125 C -0.3125 -5.097656 -0.207031 -5.941406 0 -6.984375 L 2.65625 -19.5 L 8.265625 -19.5 L 5.453125 -6.234375 C 5.378906 -5.921875 5.34375 -5.597656 5.34375 -5.265625 C 5.34375 -4.117188 5.734375 -3.546875 6.515625 -3.546875 C 7.242188 -3.546875 7.867188 -3.847656 8.390625 -4.453125 C 8.910156 -5.066406 9.328125 -5.910156 9.640625 -6.984375 L 12.28125 -19.5 L 17.90625 -19.5 L 15.09375 -6.234375 C 14.957031 -5.585938 14.890625 -5.125 14.890625 -4.84375 C 14.890625 -3.976562 15.332031 -3.546875 16.21875 -3.546875 C 17.414062 -3.546875 18.523438 -4.300781 19.546875 -5.8125 C 20.578125 -7.320312 21.40625 -9.113281 22.03125 -11.1875 C 22.65625 -13.269531 22.96875 -15.066406 22.96875 -16.578125 C 22.914062 -16.441406 22.742188 -16.34375 22.453125 -16.28125 C 22.171875 -16.21875 21.925781 -16.1875 21.71875 -16.1875 C 21.28125 -16.1875 20.9375 -16.394531 20.6875 -16.8125 C 20.4375 -17.226562 20.3125 -17.679688 20.3125 -18.171875 C 20.3125 -18.796875 20.515625 -19.300781 20.921875 -19.6875 C 21.328125 -20.082031 21.929688 -20.28125 22.734375 -20.28125 C 23.597656 -20.28125 24.222656 -19.960938 24.609375 -19.328125 C 24.992188 -18.691406 25.1875 -17.878906 25.1875 -16.890625 C 25.1875 -14.546875 24.785156 -12.039062 23.984375 -9.375 C 23.179688 -6.707031 21.945312 -4.4375 20.28125 -2.5625 C 18.613281 -0.695312 16.546875 0.234375 14.078125 0.234375 C 12.804688 0.234375 11.765625 -0.0351562 10.953125 -0.578125 C 10.148438 -1.128906 9.632812 -1.953125 9.40625 -3.046875 C 7.945312 -0.859375 6.097656 0.234375 3.859375 0.234375 Z M 3.859375 0.234375 "/></g></g></g><g fill="#404559" fill-opacity="1"><g transform="translate(638.771856, 594.65002)"><g><path d="M 5.578125 0.234375 C 3.648438 0.234375 2.15625 -0.265625 1.09375 -1.265625 C 0.03125 -2.265625 -0.5 -3.832031 -0.5 -5.96875 C -0.5 -7.757812 -0.148438 -9.734375 0.546875 -11.890625 C 1.242188 -14.046875 2.382812 -15.910156 3.96875 -17.484375 C 5.5625 -19.054688 7.578125 -19.84375 10.015625 -19.84375 C 12.878906 -19.84375 14.3125 -18.597656 14.3125 -16.109375 C 14.3125 -14.648438 13.894531 -13.304688 13.0625 -12.078125 C 12.226562 -10.859375 11.125 -9.878906 9.75 -9.140625 C 8.375 -8.398438 6.90625 -7.976562 5.34375 -7.875 C 5.289062 -7.09375 5.265625 -6.570312 5.265625 -6.3125 C 5.265625 -5.039062 5.484375 -4.175781 5.921875 -3.71875 C 6.367188 -3.269531 7.085938 -3.046875 8.078125 -3.046875 C 9.472656 -3.046875 10.671875 -3.367188 11.671875 -4.015625 C 12.679688 -4.660156 13.78125 -5.648438 14.96875 -6.984375 L 16.296875 -6.984375 C 13.410156 -2.171875 9.835938 0.234375 5.578125 0.234375 Z M 5.65625 -9.75 C 6.613281 -9.800781 7.53125 -10.140625 8.40625 -10.765625 C 9.28125 -11.390625 9.984375 -12.179688 10.515625 -13.140625 C 11.046875 -14.109375 11.3125 -15.125 11.3125 -16.1875 C 11.3125 -17.25 10.984375 -17.78125 10.328125 -17.78125 C 9.398438 -17.78125 8.484375 -16.960938 7.578125 -15.328125 C 6.679688 -13.691406 6.039062 -11.832031 5.65625 -9.75 Z M 5.65625 -9.75 "/></g></g></g><g fill="#404559" fill-opacity="1"><g transform="translate(653.744141, 594.65002)"><g/></g></g><g fill="#404559" fill-opacity="1"><g transform="translate(662.205037, 594.65002)"><g><path d="M 4.6875 0.234375 C 3.195312 0.234375 1.957031 -0.269531 0.96875 -1.28125 C -0.0078125 -2.300781 -0.5 -3.890625 -0.5 -6.046875 C -0.5 -7.972656 -0.117188 -9.992188 0.640625 -12.109375 C 1.410156 -14.222656 2.554688 -16.015625 4.078125 -17.484375 C 5.597656 -18.953125 7.410156 -19.6875 9.515625 -19.6875 C 10.578125 -19.6875 11.367188 -19.503906 11.890625 -19.140625 C 12.410156 -18.785156 12.671875 -18.304688 12.671875 -17.703125 L 12.671875 -17.546875 L 14.59375 -26.515625 L 20.359375 -27.296875 L 15.875 -6.234375 C 15.769531 -5.847656 15.71875 -5.429688 15.71875 -4.984375 C 15.71875 -4.472656 15.835938 -4.101562 16.078125 -3.875 C 16.328125 -3.65625 16.738281 -3.546875 17.3125 -3.546875 C 18.039062 -3.546875 18.671875 -3.859375 19.203125 -4.484375 C 19.734375 -5.109375 20.15625 -5.941406 20.46875 -6.984375 L 22.109375 -6.984375 C 20.523438 -2.328125 17.914062 0 14.28125 0 C 13.207031 0 12.335938 -0.285156 11.671875 -0.859375 C 11.015625 -1.429688 10.609375 -2.265625 10.453125 -3.359375 C 9.773438 -2.316406 8.960938 -1.457031 8.015625 -0.78125 C 7.066406 -0.101562 5.957031 0.234375 4.6875 0.234375 Z M 7.21875 -3.546875 C 7.84375 -3.546875 8.472656 -3.832031 9.109375 -4.40625 C 9.742188 -4.976562 10.175781 -5.769531 10.40625 -6.78125 L 10.40625 -6.984375 L 12.328125 -15.90625 C 12.085938 -16.820312 11.550781 -17.28125 10.71875 -17.28125 C 9.6875 -17.28125 8.753906 -16.675781 7.921875 -15.46875 C 7.085938 -14.257812 6.4375 -12.800781 5.96875 -11.09375 C 5.5 -9.394531 5.265625 -7.894531 5.265625 -6.59375 C 5.265625 -5.289062 5.453125 -4.457031 5.828125 -4.09375 C 6.203125 -3.726562 6.664062 -3.546875 7.21875 -3.546875 Z M 7.21875 -3.546875 "/></g></g></g><g fill="#404559" fill-opacity="1"><g transform="translate(682.674965, 594.65002)"><g><path d="M 5.6875 0.15625 C 3.769531 0.15625 2.25 -0.335938 1.125 -1.328125 C 0.0078125 -2.316406 -0.546875 -3.875 -0.546875 -6 C -0.546875 -7.769531 -0.179688 -9.734375 0.546875 -11.890625 C 1.273438 -14.046875 2.441406 -15.910156 4.046875 -17.484375 C 5.660156 -19.054688 7.691406 -19.84375 10.140625 -19.84375 C 13.460938 -19.84375 15.125 -17.765625 15.125 -13.609375 L 15.125 -13.578125 C 15.207031 -13.546875 15.351562 -13.53125 15.5625 -13.53125 C 16.414062 -13.53125 17.398438 -13.753906 18.515625 -14.203125 C 19.640625 -14.660156 20.65625 -15.21875 21.5625 -15.875 L 21.921875 -14.8125 C 21.160156 -14.007812 20.175781 -13.328125 18.96875 -12.765625 C 17.757812 -12.210938 16.441406 -11.816406 15.015625 -11.578125 C 14.804688 -9.210938 14.269531 -7.144531 13.40625 -5.375 C 12.550781 -3.613281 11.445312 -2.25 10.09375 -1.28125 C 8.75 -0.320312 7.28125 0.15625 5.6875 0.15625 Z M 7.25 -3.359375 C 7.875 -3.359375 8.5 -3.710938 9.125 -4.421875 C 9.75 -5.140625 10.296875 -6.113281 10.765625 -7.34375 C 11.234375 -8.582031 11.570312 -9.957031 11.78125 -11.46875 C 11.070312 -11.625 10.71875 -12.171875 10.71875 -13.109375 C 10.71875 -14.171875 11.125 -14.867188 11.9375 -15.203125 C 11.882812 -16.066406 11.753906 -16.660156 11.546875 -16.984375 C 11.335938 -17.304688 10.972656 -17.46875 10.453125 -17.46875 C 9.597656 -17.46875 8.765625 -16.84375 7.953125 -15.59375 C 7.148438 -14.351562 6.5 -12.859375 6 -11.109375 C 5.507812 -9.367188 5.265625 -7.835938 5.265625 -6.515625 C 5.265625 -5.265625 5.40625 -4.425781 5.6875 -4 C 5.976562 -3.570312 6.5 -3.359375 7.25 -3.359375 Z M 7.25 -3.359375 "/></g></g></g><g fill="#404559" fill-opacity="1"><g transform="translate(699.791726, 594.65002)"><g/></g></g><g fill="#404559" fill-opacity="1"><g transform="translate(708.252623, 594.65002)"><g><path d="M 3.859375 0.234375 C 2.609375 0.234375 1.597656 -0.15625 0.828125 -0.9375 C 0.0664062 -1.71875 -0.3125 -2.890625 -0.3125 -4.453125 C -0.3125 -5.097656 -0.207031 -5.941406 0 -6.984375 L 2.34375 -17.9375 L 1.046875 -17.9375 L 1.359375 -19.5 L 2.65625 -19.5 L 3.828125 -24.875 L 9.59375 -25.65625 L 8.265625 -19.5 L 10.609375 -19.5 L 10.296875 -17.9375 L 7.953125 -17.9375 L 5.453125 -6.234375 C 5.347656 -5.847656 5.296875 -5.429688 5.296875 -4.984375 C 5.296875 -4.472656 5.421875 -4.101562 5.671875 -3.875 C 5.921875 -3.65625 6.332031 -3.546875 6.90625 -3.546875 C 7.65625 -3.546875 8.351562 -3.863281 9 -4.5 C 9.65625 -5.132812 10.125 -5.960938 10.40625 -6.984375 L 12.046875 -6.984375 C 11.085938 -4.171875 9.851562 -2.265625 8.34375 -1.265625 C 6.832031 -0.265625 5.335938 0.234375 3.859375 0.234375 Z M 3.859375 0.234375 "/></g></g></g><g fill="#404559" fill-opacity="1"><g transform="translate(718.663049, 594.65002)"><g><path d="M 14.078125 0.234375 C 12.492188 0.234375 11.332031 -0.1875 10.59375 -1.03125 C 9.851562 -1.875 9.484375 -2.921875 9.484375 -4.171875 C 9.484375 -4.710938 9.546875 -5.328125 9.671875 -6.015625 C 9.796875 -6.710938 9.929688 -7.382812 10.078125 -8.03125 C 10.222656 -8.6875 10.320312 -9.101562 10.375 -9.28125 C 10.582031 -10.1875 10.773438 -11.082031 10.953125 -11.96875 C 11.140625 -12.851562 11.234375 -13.570312 11.234375 -14.125 C 11.234375 -15.445312 10.765625 -16.109375 9.828125 -16.109375 C 9.148438 -16.109375 8.550781 -15.773438 8.03125 -15.109375 C 7.507812 -14.453125 7.09375 -13.585938 6.78125 -12.515625 L 4.140625 0 L -1.484375 0 L 4.171875 -26.515625 L 9.9375 -27.296875 L 7.84375 -17.46875 C 9.132812 -18.925781 10.65625 -19.65625 12.40625 -19.65625 C 13.726562 -19.65625 14.78125 -19.289062 15.5625 -18.5625 C 16.34375 -17.832031 16.734375 -16.726562 16.734375 -15.25 C 16.734375 -14.5 16.640625 -13.660156 16.453125 -12.734375 C 16.273438 -11.804688 16.015625 -10.679688 15.671875 -9.359375 C 15.460938 -8.554688 15.273438 -7.769531 15.109375 -7 C 14.941406 -6.226562 14.859375 -5.625 14.859375 -5.1875 C 14.859375 -4.664062 14.972656 -4.257812 15.203125 -3.96875 C 15.441406 -3.6875 15.847656 -3.546875 16.421875 -3.546875 C 17.203125 -3.546875 17.828125 -3.820312 18.296875 -4.375 C 18.765625 -4.9375 19.226562 -5.804688 19.6875 -6.984375 L 21.328125 -6.984375 C 20.367188 -4.117188 19.257812 -2.195312 18 -1.21875 C 16.738281 -0.25 15.429688 0.234375 14.078125 0.234375 Z M 14.078125 0.234375 "/></g></g></g><g fill="#404559" fill-opacity="1"><g transform="translate(738.353169, 594.65002)"><g><path d="M 5.578125 0.234375 C 3.648438 0.234375 2.15625 -0.265625 1.09375 -1.265625 C 0.03125 -2.265625 -0.5 -3.832031 -0.5 -5.96875 C -0.5 -7.757812 -0.148438 -9.734375 0.546875 -11.890625 C 1.242188 -14.046875 2.382812 -15.910156 3.96875 -17.484375 C 5.5625 -19.054688 7.578125 -19.84375 10.015625 -19.84375 C 12.878906 -19.84375 14.3125 -18.597656 14.3125 -16.109375 C 14.3125 -14.648438 13.894531 -13.304688 13.0625 -12.078125 C 12.226562 -10.859375 11.125 -9.878906 9.75 -9.140625 C 8.375 -8.398438 6.90625 -7.976562 5.34375 -7.875 C 5.289062 -7.09375 5.265625 -6.570312 5.265625 -6.3125 C 5.265625 -5.039062 5.484375 -4.175781 5.921875 -3.71875 C 6.367188 -3.269531 7.085938 -3.046875 8.078125 -3.046875 C 9.472656 -3.046875 10.671875 -3.367188 11.671875 -4.015625 C 12.679688 -4.660156 13.78125 -5.648438 14.96875 -6.984375 L 16.296875 -6.984375 C 13.410156 -2.171875 9.835938 0.234375 5.578125 0.234375 Z M 5.65625 -9.75 C 6.613281 -9.800781 7.53125 -10.140625 8.40625 -10.765625 C 9.28125 -11.390625 9.984375 -12.179688 10.515625 -13.140625 C 11.046875 -14.109375 11.3125 -15.125 11.3125 -16.1875 C 11.3125 -17.25 10.984375 -17.78125 10.328125 -17.78125 C 9.398438 -17.78125 8.484375 -16.960938 7.578125 -15.328125 C 6.679688 -13.691406 6.039062 -11.832031 5.65625 -9.75 Z M 5.65625 -9.75 "/></g></g></g><g fill="#404559" fill-opacity="1"><g transform="translate(753.325453, 594.65002)"><g/></g></g><g fill="#404559" fill-opacity="1"><g transform="translate(761.78635, 594.65002)"><g><path d="M 2.65625 -19.5 L 8.265625 -19.5 L 7.765625 -17.078125 C 8.648438 -17.859375 9.445312 -18.457031 10.15625 -18.875 C 10.875 -19.289062 11.648438 -19.5 12.484375 -19.5 C 13.316406 -19.5 13.972656 -19.210938 14.453125 -18.640625 C 14.929688 -18.066406 15.171875 -17.378906 15.171875 -16.578125 C 15.171875 -15.816406 14.921875 -15.148438 14.421875 -14.578125 C 13.929688 -14.015625 13.242188 -13.734375 12.359375 -13.734375 C 11.785156 -13.734375 11.398438 -13.867188 11.203125 -14.140625 C 11.015625 -14.410156 10.867188 -14.804688 10.765625 -15.328125 C 10.679688 -15.660156 10.597656 -15.90625 10.515625 -16.0625 C 10.441406 -16.21875 10.300781 -16.296875 10.09375 -16.296875 C 9.550781 -16.296875 9.09375 -16.1875 8.71875 -15.96875 C 8.34375 -15.75 7.851562 -15.363281 7.25 -14.8125 L 4.140625 0 L -1.484375 0 Z M 2.65625 -19.5 "/></g></g></g><g fill="#404559" fill-opacity="1"><g transform="translate(776.446719, 594.65002)"><g><path d="M 5.578125 0.234375 C 3.648438 0.234375 2.15625 -0.265625 1.09375 -1.265625 C 0.03125 -2.265625 -0.5 -3.832031 -0.5 -5.96875 C -0.5 -7.757812 -0.148438 -9.734375 0.546875 -11.890625 C 1.242188 -14.046875 2.382812 -15.910156 3.96875 -17.484375 C 5.5625 -19.054688 7.578125 -19.84375 10.015625 -19.84375 C 12.878906 -19.84375 14.3125 -18.597656 14.3125 -16.109375 C 14.3125 -14.648438 13.894531 -13.304688 13.0625 -12.078125 C 12.226562 -10.859375 11.125 -9.878906 9.75 -9.140625 C 8.375 -8.398438 6.90625 -7.976562 5.34375 -7.875 C 5.289062 -7.09375 5.265625 -6.570312 5.265625 -6.3125 C 5.265625 -5.039062 5.484375 -4.175781 5.921875 -3.71875 C 6.367188 -3.269531 7.085938 -3.046875 8.078125 -3.046875 C 9.472656 -3.046875 10.671875 -3.367188 11.671875 -4.015625 C 12.679688 -4.660156 13.78125 -5.648438 14.96875 -6.984375 L 16.296875 -6.984375 C 13.410156 -2.171875 9.835938 0.234375 5.578125 0.234375 Z M 5.65625 -9.75 C 6.613281 -9.800781 7.53125 -10.140625 8.40625 -10.765625 C 9.28125 -11.390625 9.984375 -12.179688 10.515625 -13.140625 C 11.046875 -14.109375 11.3125 -15.125 11.3125 -16.1875 C 11.3125 -17.25 10.984375 -17.78125 10.328125 -17.78125 C 9.398438 -17.78125 8.484375 -16.960938 7.578125 -15.328125 C 6.679688 -13.691406 6.039062 -11.832031 5.65625 -9.75 Z M 5.65625 -9.75 "/></g></g></g><g fill="#404559" fill-opacity="1"><g transform="translate(791.419003, 594.65002)"><g><path d="M 4.453125 0.234375 C 3.203125 0.234375 2.144531 -0.00390625 1.28125 -0.484375 C 0.425781 -0.960938 -0.207031 -1.585938 -0.625 -2.359375 C -1.039062 -3.128906 -1.25 -3.929688 -1.25 -4.765625 C -1.25 -5.617188 -1.046875 -6.363281 -0.640625 -7 C -0.234375 -7.632812 0.25 -8.097656 0.8125 -8.390625 C 1.832031 -10.203125 2.71875 -12.035156 3.46875 -13.890625 C 4.226562 -15.753906 4.941406 -17.765625 5.609375 -19.921875 L 11.390625 -20.703125 C 11.515625 -17.378906 11.734375 -13.78125 12.046875 -9.90625 C 12.179688 -8.34375 12.25 -7.210938 12.25 -6.515625 C 12.25 -5.910156 12.195312 -5.414062 12.09375 -5.03125 C 13.3125 -5.726562 14.242188 -6.378906 14.890625 -6.984375 L 16.53125 -6.984375 C 14.875 -5.054688 12.882812 -3.429688 10.5625 -2.109375 C 9.8125 -1.296875 8.882812 -0.703125 7.78125 -0.328125 C 6.675781 0.046875 5.566406 0.234375 4.453125 0.234375 Z M 3.203125 -2.84375 C 4.160156 -2.84375 4.960938 -3.128906 5.609375 -3.703125 C 6.265625 -4.273438 6.59375 -5.195312 6.59375 -6.46875 C 6.59375 -7.25 6.515625 -8.34375 6.359375 -9.75 C 6.097656 -12.71875 5.925781 -14.707031 5.84375 -15.71875 C 5.21875 -13.664062 4.164062 -11.207031 2.6875 -8.34375 C 3.289062 -8.03125 3.59375 -7.578125 3.59375 -6.984375 C 3.59375 -6.484375 3.425781 -6.035156 3.09375 -5.640625 C 2.769531 -5.253906 2.363281 -5.0625 1.875 -5.0625 C 1.320312 -5.0625 0.96875 -5.234375 0.8125 -5.578125 C 0.8125 -4.640625 1 -3.945312 1.375 -3.5 C 1.757812 -3.0625 2.367188 -2.84375 3.203125 -2.84375 Z M 3.203125 -2.84375 "/></g></g></g><g fill="#404559" fill-opacity="1"><g transform="translate(806.313309, 594.65002)"><g><path d="M 3.859375 0.234375 C 2.609375 0.234375 1.597656 -0.15625 0.828125 -0.9375 C 0.0664062 -1.71875 -0.3125 -2.890625 -0.3125 -4.453125 C -0.3125 -5.097656 -0.207031 -5.941406 0 -6.984375 L 2.34375 -17.9375 L 1.046875 -17.9375 L 1.359375 -19.5 L 2.65625 -19.5 L 3.828125 -24.875 L 9.59375 -25.65625 L 8.265625 -19.5 L 10.609375 -19.5 L 10.296875 -17.9375 L 7.953125 -17.9375 L 5.453125 -6.234375 C 5.347656 -5.847656 5.296875 -5.429688 5.296875 -4.984375 C 5.296875 -4.472656 5.421875 -4.101562 5.671875 -3.875 C 5.921875 -3.65625 6.332031 -3.546875 6.90625 -3.546875 C 7.65625 -3.546875 8.351562 -3.863281 9 -4.5 C 9.65625 -5.132812 10.125 -5.960938 10.40625 -6.984375 L 12.046875 -6.984375 C 11.085938 -4.171875 9.851562 -2.265625 8.34375 -1.265625 C 6.832031 -0.265625 5.335938 0.234375 3.859375 0.234375 Z M 3.859375 0.234375 "/></g></g></g><g fill="#404559" fill-opacity="1"><g transform="translate(816.723735, 594.65002)"><g><path d="M 4.296875 0.15625 C 3.429688 0.15625 2.695312 -0.140625 2.09375 -0.734375 C 1.5 -1.335938 1.203125 -2.066406 1.203125 -2.921875 C 1.203125 -3.785156 1.5 -4.519531 2.09375 -5.125 C 2.695312 -5.738281 3.429688 -6.046875 4.296875 -6.046875 C 5.148438 -6.046875 5.878906 -5.738281 6.484375 -5.125 C 7.097656 -4.519531 7.40625 -3.785156 7.40625 -2.921875 C 7.40625 -2.066406 7.097656 -1.335938 6.484375 -0.734375 C 5.878906 -0.140625 5.148438 0.15625 4.296875 0.15625 Z M 4.296875 0.15625 "/></g></g></g></svg>