<svg xmlns="http://www.w3.org/2000/svg" xmlns:xlink="http://www.w3.org/1999/xlink" width="1920" zoomAndPan="magnify" viewBox="0 0 1440 809.999993" height="1080" preserveAspectRatio="xMidYMid meet" version="1.0"><defs><g/><clipPath id="fc7f736850"><path d="M 457.433594 237.164062 L 996 237.164062 L 996 423.285156 L 457.433594 423.285156 Z M 457.433594 237.164062 " clip-rule="nonzero"/></clipPath><clipPath id="140863e27c"><path d="M 467.933594 237.164062 L 985.363281 237.164062 C 991.160156 237.164062 995.863281 241.863281 995.863281 247.664062 L 995.863281 412.785156 C 995.863281 418.585938 991.160156 423.285156 985.363281 423.285156 L 467.933594 423.285156 C 462.132812 423.285156 457.433594 418.585938 457.433594 412.785156 L 457.433594 247.664062 C 457.433594 241.863281 462.132812 237.164062 467.933594 237.164062 Z M 467.933594 237.164062 " clip-rule="nonzero"/></clipPath><clipPath id="66ae4eefba"><path d="M 457.4375 237.164062 L 995.933594 237.164062 L 995.933594 423.164062 L 457.4375 423.164062 Z M 457.4375 237.164062 " clip-rule="nonzero"/></clipPath><clipPath id="7774bbfbc9"><path d="M 467.9375 237.164062 L 985.347656 237.164062 C 991.144531 237.164062 995.847656 241.863281 995.847656 247.664062 L 995.847656 412.78125 C 995.847656 418.578125 991.144531 423.28125 985.347656 423.28125 L 467.9375 423.28125 C 462.136719 423.28125 457.4375 418.578125 457.4375 412.78125 L 457.4375 247.664062 C 457.4375 241.863281 462.136719 237.164062 467.9375 237.164062 Z M 467.9375 237.164062 " clip-rule="nonzero"/></clipPath><clipPath id="8c80b7ff88"><path d="M 450.785156 230.515625 L 989.527344 230.515625 L 989.527344 416.640625 L 450.785156 416.640625 Z M 450.785156 230.515625 " clip-rule="nonzero"/></clipPath><clipPath id="81768591b6"><path d="M 461.285156 230.515625 L 978.714844 230.515625 C 984.511719 230.515625 989.214844 235.21875 989.214844 241.015625 L 989.214844 406.140625 C 989.214844 411.9375 984.511719 416.640625 978.714844 416.640625 L 461.285156 416.640625 C 455.488281 416.640625 450.785156 411.9375 450.785156 406.140625 L 450.785156 241.015625 C 450.785156 235.21875 455.488281 230.515625 461.285156 230.515625 Z M 461.285156 230.515625 " clip-rule="nonzero"/></clipPath><clipPath id="dd43024240"><path d="M 450.789062 230.515625 L 989.285156 230.515625 L 989.285156 416.515625 L 450.789062 416.515625 Z M 450.789062 230.515625 " clip-rule="nonzero"/></clipPath><clipPath id="0a3bfc43e7"><path d="M 461.289062 230.515625 L 978.699219 230.515625 C 984.5 230.515625 989.199219 235.21875 989.199219 241.015625 L 989.199219 406.132812 C 989.199219 411.933594 984.5 416.632812 978.699219 416.632812 L 461.289062 416.632812 C 455.492188 416.632812 450.789062 411.933594 450.789062 406.132812 L 450.789062 241.015625 C 450.789062 235.21875 455.492188 230.515625 461.289062 230.515625 Z M 461.289062 230.515625 " clip-rule="nonzero"/></clipPath><clipPath id="8269ae12da"><path d="M 444.136719 223.867188 L 982.878906 223.867188 L 982.878906 409.992188 L 444.136719 409.992188 Z M 444.136719 223.867188 " clip-rule="nonzero"/></clipPath><clipPath id="dcee93a33d"><path d="M 454.636719 223.867188 L 972.066406 223.867188 C 977.867188 223.867188 982.566406 228.570312 982.566406 234.367188 L 982.566406 399.492188 C 982.566406 405.292969 977.867188 409.992188 972.066406 409.992188 L 454.636719 409.992188 C 448.839844 409.992188 444.136719 405.292969 444.136719 399.492188 L 444.136719 234.367188 C 444.136719 228.570312 448.839844 223.867188 454.636719 223.867188 Z M 454.636719 223.867188 " clip-rule="nonzero"/></clipPath><clipPath id="0ca81a942f"><path d="M 444.140625 223.867188 L 982.636719 223.867188 L 982.636719 409.867188 L 444.140625 409.867188 Z M 444.140625 223.867188 " clip-rule="nonzero"/></clipPath><clipPath id="da0c911f94"><path d="M 454.640625 223.867188 L 972.054688 223.867188 C 977.851562 223.867188 982.550781 228.570312 982.550781 234.367188 L 982.550781 399.488281 C 982.550781 405.285156 977.851562 409.984375 972.054688 409.984375 L 454.640625 409.984375 C 448.84375 409.984375 444.140625 405.285156 444.140625 399.488281 L 444.140625 234.367188 C 444.140625 228.570312 448.84375 223.867188 454.640625 223.867188 Z M 454.640625 223.867188 " clip-rule="nonzero"/></clipPath></defs><rect x="-144" width="1728" fill="#ffffff" y="-80.999999" height="971.999992" fill-opacity="1"/><rect x="-144" width="1728" fill="#bdc9c7" y="-80.999999" height="971.999992" fill-opacity="1"/><g clip-path="url(#fc7f736850)"><g clip-path="url(#140863e27c)"><path fill="#bbcabf" d="M 457.433594 237.164062 L 996.171875 237.164062 L 996.171875 423.285156 L 457.433594 423.285156 Z M 457.433594 237.164062 " fill-opacity="1" fill-rule="nonzero"/></g></g><g clip-path="url(#66ae4eefba)"><g clip-path="url(#7774bbfbc9)"><path stroke-linecap="butt" transform="matrix(0.75, 0, 0, 0.75, 457.436911, 237.16363)" fill="none" stroke-linejoin="miter" d="M 14.000787 0.000576042 L 703.881074 0.000576042 C 711.610241 0.000576042 717.881075 6.266202 717.881075 14.000578 L 717.881075 234.156853 C 717.881075 241.88602 711.610241 248.156854 703.881074 248.156854 L 14.000787 248.156854 C 6.266411 248.156854 0.000785055 241.88602 0.000785055 234.156853 L 0.000785055 14.000578 C 0.000785055 6.266202 6.266411 0.000576042 14.000787 0.000576042 Z M 14.000787 0.000576042 " stroke="#929ca1" stroke-width="4" stroke-opacity="1" stroke-miterlimit="4"/></g></g><g clip-path="url(#8c80b7ff88)"><g clip-path="url(#81768591b6)"><path fill="#b6cab6" d="M 450.785156 230.515625 L 989.527344 230.515625 L 989.527344 416.640625 L 450.785156 416.640625 Z M 450.785156 230.515625 " fill-opacity="1" fill-rule="nonzero"/></g></g><g clip-path="url(#dd43024240)"><g clip-path="url(#0a3bfc43e7)"><path stroke-linecap="butt" transform="matrix(0.75, 0, 0, 0.75, 450.789632, 230.51636)" fill="none" stroke-linejoin="miter" d="M 13.999243 -0.000980537 L 703.87953 -0.000980537 C 711.613906 -0.000980537 717.879532 6.269854 717.879532 13.999021 L 717.879532 234.155296 C 717.879532 241.889672 711.613906 248.155298 703.87953 248.155298 L 13.999243 248.155298 C 6.270075 248.155298 -0.000758725 241.889672 -0.000758725 234.155296 L -0.000758725 13.999021 C -0.000758725 6.269854 6.270075 -0.000980537 13.999243 -0.000980537 Z M 13.999243 -0.000980537 " stroke="#747d84" stroke-width="4" stroke-opacity="1" stroke-miterlimit="4"/></g></g><g clip-path="url(#8269ae12da)"><g clip-path="url(#dcee93a33d)"><path fill="#b6cdb1" d="M 444.136719 223.867188 L 982.878906 223.867188 L 982.878906 409.992188 L 444.136719 409.992188 Z M 444.136719 223.867188 " fill-opacity="1" fill-rule="nonzero"/></g></g><g clip-path="url(#0ca81a942f)"><g clip-path="url(#da0c911f94)"><path stroke-linecap="butt" transform="matrix(0.75, 0, 0, 0.75, 444.142328, 223.869105)" fill="none" stroke-linejoin="miter" d="M 13.997731 -0.00255632 L 703.883227 -0.00255632 C 711.612394 -0.00255632 717.87802 6.268278 717.87802 13.997445 L 717.87802 234.158929 C 717.87802 241.888096 711.612394 248.153722 703.883227 248.153722 L 13.997731 248.153722 C 6.268564 248.153722 -0.0022705 241.888096 -0.0022705 234.158929 L -0.0022705 13.997445 C -0.0022705 6.268278 6.268564 -0.00255632 13.997731 -0.00255632 Z M 13.997731 -0.00255632 " stroke="#404559" stroke-width="4" stroke-opacity="1" stroke-miterlimit="4"/></g></g><g fill="#404559" fill-opacity="1"><g transform="translate(457.040815, 387.622079)"><g><path d="M 43.359375 -119.890625 L 71.265625 -123.671875 L 57.875 -60.703125 C 63.90625 -61.203125 69.460938 -63.835938 74.546875 -68.609375 C 79.640625 -73.390625 83.628906 -79.296875 86.515625 -86.328125 C 89.410156 -93.367188 90.859375 -100.285156 90.859375 -107.078125 C 90.859375 -114.617188 88.910156 -120.773438 85.015625 -125.546875 C 81.117188 -130.328125 75.273438 -132.71875 67.484375 -132.71875 C 52.148438 -132.71875 40.175781 -128.691406 31.5625 -120.640625 C 22.957031 -112.597656 18.65625 -101.351562 18.65625 -86.90625 C 18.65625 -82.257812 19.09375 -79.023438 19.96875 -77.203125 C 20.851562 -75.378906 21.296875 -74.34375 21.296875 -74.09375 C 14.515625 -74.09375 9.457031 -75.503906 6.125 -78.328125 C 2.789062 -81.148438 1.125 -85.832031 1.125 -92.375 C 1.125 -100.414062 4.421875 -108.238281 11.015625 -115.84375 C 17.617188 -123.445312 26.070312 -129.601562 36.375 -134.3125 C 46.6875 -139.03125 56.992188 -141.390625 67.296875 -141.390625 C 77.222656 -141.390625 85.515625 -139.691406 92.171875 -136.296875 C 98.835938 -132.898438 103.773438 -128.40625 106.984375 -122.8125 C 110.191406 -117.21875 111.796875 -111.03125 111.796875 -104.25 C 111.796875 -96.082031 109.5625 -88.101562 105.09375 -80.3125 C 100.632812 -72.519531 94.253906 -66.140625 85.953125 -61.171875 C 77.660156 -56.210938 68.113281 -53.734375 57.3125 -53.734375 L 56.359375 -53.734375 L 44.859375 0 L 17.71875 0 Z M 43.359375 -119.890625 "/></g></g></g><g fill="#404559" fill-opacity="1"><g transform="translate(565.057172, 387.622079)"><g><path d="M 68.046875 1.125 C 60.390625 1.125 54.769531 -0.914062 51.1875 -5 C 47.601562 -9.082031 45.8125 -14.140625 45.8125 -20.171875 C 45.8125 -22.804688 46.125 -25.789062 46.75 -29.125 C 47.375 -32.457031 48.03125 -35.691406 48.71875 -38.828125 C 49.414062 -41.972656 49.890625 -43.984375 50.140625 -44.859375 C 51.148438 -49.265625 52.09375 -53.601562 52.96875 -57.875 C 53.851562 -62.144531 54.296875 -65.601562 54.296875 -68.25 C 54.296875 -74.65625 52.03125 -77.859375 47.5 -77.859375 C 44.238281 -77.859375 41.347656 -76.253906 38.828125 -73.046875 C 36.316406 -69.847656 34.304688 -65.671875 32.796875 -60.515625 L 19.984375 0 L -7.15625 0 L 20.171875 -128.1875 L 48.078125 -131.96875 L 37.890625 -84.453125 C 44.171875 -91.492188 51.523438 -95.015625 59.953125 -95.015625 C 66.359375 -95.015625 71.445312 -93.253906 75.21875 -89.734375 C 78.988281 -86.210938 80.875 -80.867188 80.875 -73.703125 C 80.875 -70.066406 80.429688 -66.015625 79.546875 -61.546875 C 78.671875 -57.085938 77.414062 -51.65625 75.78125 -45.25 C 74.78125 -41.351562 73.867188 -37.550781 73.046875 -33.84375 C 72.234375 -30.132812 71.828125 -27.210938 71.828125 -25.078125 C 71.828125 -22.554688 72.390625 -20.601562 73.515625 -19.21875 C 74.648438 -17.84375 76.597656 -17.15625 79.359375 -17.15625 C 83.128906 -17.15625 86.144531 -18.503906 88.40625 -21.203125 C 90.675781 -23.910156 92.941406 -28.09375 95.203125 -33.75 L 103.125 -33.75 C 98.46875 -19.914062 93.09375 -10.644531 87 -5.9375 C 80.90625 -1.226562 74.585938 1.125 68.046875 1.125 Z M 68.046875 1.125 "/></g></g></g><g fill="#404559" fill-opacity="1"><g transform="translate(660.254835, 387.622079)"><g><path d="M 31.484375 -104.4375 C 27.335938 -104.4375 23.816406 -105.878906 20.921875 -108.765625 C 18.035156 -111.660156 16.59375 -115.179688 16.59375 -119.328125 C 16.59375 -123.472656 18.035156 -127.019531 20.921875 -129.96875 C 23.816406 -132.925781 27.335938 -134.40625 31.484375 -134.40625 C 35.628906 -134.40625 39.175781 -132.925781 42.125 -129.96875 C 45.082031 -127.019531 46.5625 -123.472656 46.5625 -119.328125 C 46.5625 -115.179688 45.082031 -111.660156 42.125 -108.765625 C 39.175781 -105.878906 35.628906 -104.4375 31.484375 -104.4375 Z M 18.65625 1.125 C 12.625 1.125 7.753906 -0.757812 4.046875 -4.53125 C 0.335938 -8.300781 -1.515625 -13.953125 -1.515625 -21.484375 C -1.515625 -24.628906 -1.007812 -28.71875 0 -33.75 L 12.8125 -94.265625 L 39.96875 -94.265625 L 26.390625 -30.15625 C 25.890625 -28.269531 25.640625 -26.257812 25.640625 -24.125 C 25.640625 -21.613281 26.234375 -19.820312 27.421875 -18.75 C 28.617188 -17.6875 30.601562 -17.15625 33.375 -17.15625 C 37.007812 -17.15625 40.398438 -18.691406 43.546875 -21.765625 C 46.691406 -24.847656 48.953125 -28.84375 50.328125 -33.75 L 58.25 -33.75 C 53.601562 -20.175781 47.632812 -10.96875 40.34375 -6.125 C 33.050781 -1.289062 25.820312 1.125 18.65625 1.125 Z M 18.65625 1.125 "/></g></g></g><g fill="#404559" fill-opacity="1"><g transform="translate(710.587054, 387.622079)"><g><path d="M 27.515625 0.75 C 18.222656 0.75 10.875 -1.632812 5.46875 -6.40625 C 0.0625 -11.1875 -2.640625 -18.726562 -2.640625 -29.03125 C -2.640625 -37.570312 -0.878906 -47.054688 2.640625 -57.484375 C 6.160156 -67.921875 11.816406 -76.941406 19.609375 -84.546875 C 27.398438 -92.148438 37.203125 -95.953125 49.015625 -95.953125 C 65.097656 -95.953125 73.140625 -85.898438 73.140625 -65.796875 L 73.140625 -65.609375 C 73.515625 -65.484375 74.207031 -65.421875 75.21875 -65.421875 C 79.363281 -65.421875 84.140625 -66.519531 89.546875 -68.71875 C 94.953125 -70.914062 99.851562 -73.582031 104.25 -76.71875 L 105.953125 -71.640625 C 102.304688 -67.742188 97.5625 -64.441406 91.71875 -61.734375 C 85.875 -59.035156 79.492188 -57.117188 72.578125 -55.984375 C 71.578125 -44.546875 69 -34.554688 64.84375 -26.015625 C 60.695312 -17.472656 55.351562 -10.875 48.8125 -6.21875 C 42.28125 -1.570312 35.179688 0.75 27.515625 0.75 Z M 35.0625 -16.21875 C 38.082031 -16.21875 41.097656 -17.941406 44.109375 -21.390625 C 47.128906 -24.847656 49.769531 -29.5625 52.03125 -35.53125 C 54.289062 -41.5 55.925781 -48.128906 56.9375 -55.421875 C 53.539062 -56.179688 51.84375 -58.820312 51.84375 -63.34375 C 51.84375 -68.5 53.789062 -71.890625 57.6875 -73.515625 C 57.4375 -77.660156 56.804688 -80.519531 55.796875 -82.09375 C 54.796875 -83.664062 53.035156 -84.453125 50.515625 -84.453125 C 46.367188 -84.453125 42.347656 -81.4375 38.453125 -75.40625 C 34.554688 -69.375 31.414062 -62.144531 29.03125 -53.71875 C 26.644531 -45.300781 25.453125 -37.890625 25.453125 -31.484375 C 25.453125 -25.453125 26.140625 -21.398438 27.515625 -19.328125 C 28.898438 -17.253906 31.414062 -16.21875 35.0625 -16.21875 Z M 35.0625 -16.21875 "/></g></g></g><g fill="#404559" fill-opacity="1"><g transform="translate(793.343034, 387.622079)"><g><path d="M 21.484375 1.125 C 15.453125 1.125 10.363281 -0.0351562 6.21875 -2.359375 C 2.070312 -4.679688 -1.003906 -7.695312 -3.015625 -11.40625 C -5.023438 -15.113281 -6.03125 -18.976562 -6.03125 -23 C -6.03125 -27.144531 -5.054688 -30.753906 -3.109375 -33.828125 C -1.160156 -36.910156 1.191406 -39.144531 3.953125 -40.53125 C 8.859375 -49.332031 13.132812 -58.222656 16.78125 -67.203125 C 20.425781 -76.191406 23.878906 -85.898438 27.140625 -96.328125 L 55.046875 -100.109375 C 55.671875 -84.015625 56.738281 -66.609375 58.25 -47.890625 C 58.875 -40.347656 59.1875 -34.878906 59.1875 -31.484375 C 59.1875 -28.585938 58.9375 -26.195312 58.4375 -24.3125 C 64.34375 -27.707031 68.867188 -30.851562 72.015625 -33.75 L 79.9375 -33.75 C 71.882812 -24.445312 62.269531 -16.59375 51.09375 -10.1875 C 47.445312 -6.28125 42.953125 -3.414062 37.609375 -1.59375 C 32.265625 0.21875 26.890625 1.125 21.484375 1.125 Z M 15.453125 -13.765625 C 20.109375 -13.765625 24.003906 -15.144531 27.140625 -17.90625 C 30.285156 -20.675781 31.859375 -25.140625 31.859375 -31.296875 C 31.859375 -35.066406 31.484375 -40.34375 30.734375 -47.125 C 29.472656 -61.457031 28.65625 -71.070312 28.28125 -75.96875 C 25.257812 -66.039062 20.164062 -54.164062 13 -40.34375 C 15.894531 -38.832031 17.34375 -36.632812 17.34375 -33.75 C 17.34375 -31.351562 16.554688 -29.210938 14.984375 -27.328125 C 13.410156 -25.441406 11.429688 -24.5 9.046875 -24.5 C 6.410156 -24.5 4.710938 -25.316406 3.953125 -26.953125 C 3.953125 -22.429688 4.863281 -19.101562 6.6875 -16.96875 C 8.507812 -14.832031 11.429688 -13.765625 15.453125 -13.765625 Z M 15.453125 -13.765625 "/></g></g></g><g fill="#404559" fill-opacity="1"><g transform="translate(865.353927, 387.622079)"><g><path d="M 70.875 1.125 C 63.082031 1.125 57.175781 -0.722656 53.15625 -4.421875 C 49.132812 -8.128906 47.125 -13.441406 47.125 -20.359375 C 47.125 -23.378906 47.503906 -26.644531 48.265625 -30.15625 L 49.765625 -37.515625 C 50.265625 -39.648438 50.515625 -41.972656 50.515625 -44.484375 C 50.515625 -50.515625 48.253906 -53.53125 43.734375 -53.53125 C 41.722656 -53.53125 39.617188 -52.960938 37.421875 -51.828125 C 35.222656 -50.703125 32.675781 -48.945312 29.78125 -46.5625 L 19.984375 0 L -7.15625 0 L 20.171875 -128.1875 L 48.078125 -131.96875 L 33.9375 -65.609375 L 70.3125 -94.265625 L 88.984375 -94.265625 L 51.28125 -68.046875 C 53.164062 -68.554688 55.238281 -68.8125 57.5 -68.8125 C 64.28125 -68.8125 69.429688 -66.734375 72.953125 -62.578125 C 76.472656 -58.429688 78.234375 -53.15625 78.234375 -46.75 C 78.234375 -44.113281 77.984375 -41.726562 77.484375 -39.59375 L 75.40625 -30.15625 C 74.78125 -27.894531 74.46875 -25.882812 74.46875 -24.125 C 74.46875 -19.476562 76.914062 -17.15625 81.8125 -17.15625 C 85.582031 -17.15625 88.597656 -18.503906 90.859375 -21.203125 C 93.128906 -23.910156 95.394531 -28.09375 97.65625 -33.75 L 105.5625 -33.75 C 97.769531 -10.5 86.207031 1.125 70.875 1.125 Z M 70.875 1.125 "/></g></g></g><g fill="#404559" fill-opacity="1"><g transform="translate(555.562753, 594.238444)"><g><path d="M 17 0.65625 C 14.976562 0.65625 13.96875 -0.210938 13.96875 -1.953125 C 13.96875 -2.523438 14.050781 -3.179688 14.21875 -3.921875 C 14.382812 -4.660156 14.625 -5.613281 14.9375 -6.78125 C 15.300781 -8.007812 15.570312 -9.050781 15.75 -9.90625 C 15.9375 -10.757812 16.03125 -11.523438 16.03125 -12.203125 C 16.03125 -13.972656 15.25 -14.859375 13.6875 -14.859375 C 13.269531 -14.859375 12.84375 -14.804688 12.40625 -14.703125 L 9.28125 0 L 3.671875 0 L 8.96875 -24.796875 L 14.734375 -25.578125 L 12.828125 -16.578125 L 13.140625 -16.578125 C 14.148438 -16.578125 15.082031 -16.925781 15.9375 -17.625 C 16.800781 -18.332031 17.472656 -19.210938 17.953125 -20.265625 C 18.441406 -21.316406 18.6875 -22.347656 18.6875 -23.359375 C 18.6875 -24.554688 18.328125 -25.535156 17.609375 -26.296875 C 16.890625 -27.066406 15.816406 -27.453125 14.390625 -27.453125 C 12.285156 -27.453125 10.4375 -27.070312 8.84375 -26.3125 C 7.257812 -25.5625 6.03125 -24.472656 5.15625 -23.046875 C 4.289062 -21.617188 3.859375 -19.929688 3.859375 -17.984375 C 3.859375 -17.015625 3.945312 -16.34375 4.125 -15.96875 C 4.3125 -15.59375 4.40625 -15.378906 4.40625 -15.328125 C 3 -15.328125 1.953125 -15.617188 1.265625 -16.203125 C 0.578125 -16.785156 0.234375 -17.753906 0.234375 -19.109375 C 0.234375 -20.773438 0.914062 -22.394531 2.28125 -23.96875 C 3.644531 -25.539062 5.390625 -26.8125 7.515625 -27.78125 C 9.648438 -28.757812 11.785156 -29.25 13.921875 -29.25 C 15.867188 -29.25 17.503906 -28.960938 18.828125 -28.390625 C 20.160156 -27.816406 21.148438 -27.054688 21.796875 -26.109375 C 22.453125 -25.160156 22.78125 -24.128906 22.78125 -23.015625 C 22.78125 -21.785156 22.398438 -20.5625 21.640625 -19.34375 C 20.890625 -18.125 19.863281 -17.125 18.5625 -16.34375 C 19.550781 -16.050781 20.242188 -15.570312 20.640625 -14.90625 C 21.046875 -14.25 21.25 -13.425781 21.25 -12.4375 C 21.25 -11.6875 21.15625 -10.890625 20.96875 -10.046875 C 20.789062 -9.203125 20.535156 -8.15625 20.203125 -6.90625 C 19.992188 -6.09375 19.796875 -5.296875 19.609375 -4.515625 C 19.429688 -3.742188 19.34375 -3.097656 19.34375 -2.578125 C 19.34375 -1.972656 19.476562 -1.4375 19.75 -0.96875 C 20.019531 -0.5 20.390625 -0.175781 20.859375 0 C 19.273438 0.4375 17.988281 0.65625 17 0.65625 Z M 17 0.65625 "/></g></g></g><g fill="#404559" fill-opacity="1"><g transform="translate(578.995934, 594.238444)"><g><path d="M 5.578125 0.234375 C 3.648438 0.234375 2.15625 -0.265625 1.09375 -1.265625 C 0.03125 -2.265625 -0.5 -3.832031 -0.5 -5.96875 C -0.5 -7.757812 -0.148438 -9.734375 0.546875 -11.890625 C 1.242188 -14.046875 2.382812 -15.910156 3.96875 -17.484375 C 5.5625 -19.054688 7.578125 -19.84375 10.015625 -19.84375 C 12.878906 -19.84375 14.3125 -18.597656 14.3125 -16.109375 C 14.3125 -14.648438 13.894531 -13.304688 13.0625 -12.078125 C 12.226562 -10.859375 11.125 -9.878906 9.75 -9.140625 C 8.375 -8.398438 6.90625 -7.976562 5.34375 -7.875 C 5.289062 -7.09375 5.265625 -6.570312 5.265625 -6.3125 C 5.265625 -5.039062 5.484375 -4.175781 5.921875 -3.71875 C 6.367188 -3.269531 7.085938 -3.046875 8.078125 -3.046875 C 9.472656 -3.046875 10.671875 -3.367188 11.671875 -4.015625 C 12.679688 -4.660156 13.78125 -5.648438 14.96875 -6.984375 L 16.296875 -6.984375 C 13.410156 -2.171875 9.835938 0.234375 5.578125 0.234375 Z M 5.65625 -9.75 C 6.613281 -9.800781 7.53125 -10.140625 8.40625 -10.765625 C 9.28125 -11.390625 9.984375 -12.179688 10.515625 -13.140625 C 11.046875 -14.109375 11.3125 -15.125 11.3125 -16.1875 C 11.3125 -17.25 10.984375 -17.78125 10.328125 -17.78125 C 9.398438 -17.78125 8.484375 -16.960938 7.578125 -15.328125 C 6.679688 -13.691406 6.039062 -11.832031 5.65625 -9.75 Z M 5.65625 -9.75 "/></g></g></g><g fill="#404559" fill-opacity="1"><g transform="translate(593.968218, 594.238444)"><g><path d="M 2.96875 -20.9375 L 8.578125 -20.9375 L 7.953125 -18.015625 C 9.253906 -19.128906 10.773438 -19.6875 12.515625 -19.6875 C 13.972656 -19.6875 15.128906 -19.207031 15.984375 -18.25 C 16.847656 -17.289062 17.28125 -15.71875 17.28125 -13.53125 C 17.28125 -11.476562 16.976562 -9.40625 16.375 -7.3125 C 15.78125 -5.21875 14.765625 -3.4375 13.328125 -1.96875 C 11.898438 -0.5 10.019531 0.234375 7.6875 0.234375 C 6.019531 0.234375 4.914062 -0.234375 4.375 -1.171875 L 2.34375 8.34375 L -3.546875 9.75 Z M 6.46875 -3.15625 C 7.71875 -3.15625 8.75 -3.738281 9.5625 -4.90625 C 10.382812 -6.082031 10.984375 -7.484375 11.359375 -9.109375 C 11.742188 -10.734375 11.9375 -12.25 11.9375 -13.65625 C 11.9375 -15.8125 11.285156 -16.890625 9.984375 -16.890625 C 9.515625 -16.890625 9.039062 -16.71875 8.5625 -16.375 C 8.082031 -16.039062 7.660156 -15.570312 7.296875 -14.96875 L 4.984375 -4.0625 C 5.191406 -3.457031 5.6875 -3.15625 6.46875 -3.15625 Z M 6.46875 -3.15625 "/></g></g></g><g fill="#404559" fill-opacity="1"><g transform="translate(612.215691, 594.238444)"><g><path d="M 4.6875 0.234375 C 3.195312 0.234375 1.957031 -0.269531 0.96875 -1.28125 C -0.0078125 -2.300781 -0.5 -3.890625 -0.5 -6.046875 C -0.5 -7.972656 -0.117188 -9.992188 0.640625 -12.109375 C 1.410156 -14.222656 2.554688 -16.015625 4.078125 -17.484375 C 5.597656 -18.953125 7.410156 -19.6875 9.515625 -19.6875 C 10.578125 -19.6875 11.367188 -19.503906 11.890625 -19.140625 C 12.410156 -18.785156 12.671875 -18.304688 12.671875 -17.703125 L 12.671875 -17.4375 L 13.109375 -19.5 L 18.71875 -19.5 L 15.90625 -6.234375 C 15.800781 -5.847656 15.75 -5.429688 15.75 -4.984375 C 15.75 -3.867188 16.285156 -3.3125 17.359375 -3.3125 C 18.085938 -3.3125 18.71875 -3.648438 19.25 -4.328125 C 19.78125 -5.003906 20.203125 -5.890625 20.515625 -6.984375 L 22.15625 -6.984375 C 21.1875 -4.171875 19.992188 -2.265625 18.578125 -1.265625 C 17.160156 -0.265625 15.738281 0.234375 14.3125 0.234375 C 13.21875 0.234375 12.335938 -0.0664062 11.671875 -0.671875 C 11.015625 -1.285156 10.617188 -2.179688 10.484375 -3.359375 C 9.734375 -2.285156 8.894531 -1.414062 7.96875 -0.75 C 7.050781 -0.09375 5.957031 0.234375 4.6875 0.234375 Z M 7.21875 -3.546875 C 7.863281 -3.546875 8.503906 -3.847656 9.140625 -4.453125 C 9.773438 -5.066406 10.210938 -5.910156 10.453125 -6.984375 L 12.328125 -15.796875 C 12.328125 -16.128906 12.195312 -16.457031 11.9375 -16.78125 C 11.675781 -17.113281 11.269531 -17.28125 10.71875 -17.28125 C 9.6875 -17.28125 8.753906 -16.675781 7.921875 -15.46875 C 7.085938 -14.257812 6.4375 -12.800781 5.96875 -11.09375 C 5.5 -9.394531 5.265625 -7.894531 5.265625 -6.59375 C 5.265625 -5.289062 5.453125 -4.457031 5.828125 -4.09375 C 6.203125 -3.726562 6.664062 -3.546875 7.21875 -3.546875 Z M 7.21875 -3.546875 "/></g></g></g><g fill="#404559" fill-opacity="1"><g transform="translate(632.724608, 594.238444)"><g><path d="M 6.515625 -21.609375 C 5.648438 -21.609375 4.921875 -21.90625 4.328125 -22.5 C 3.734375 -23.101562 3.4375 -23.832031 3.4375 -24.6875 C 3.4375 -25.539062 3.734375 -26.273438 4.328125 -26.890625 C 4.921875 -27.503906 5.648438 -27.8125 6.515625 -27.8125 C 7.367188 -27.8125 8.101562 -27.503906 8.71875 -26.890625 C 9.332031 -26.273438 9.640625 -25.539062 9.640625 -24.6875 C 9.640625 -23.832031 9.332031 -23.101562 8.71875 -22.5 C 8.101562 -21.90625 7.367188 -21.609375 6.515625 -21.609375 Z M 3.859375 0.234375 C 2.609375 0.234375 1.597656 -0.15625 0.828125 -0.9375 C 0.0664062 -1.71875 -0.3125 -2.890625 -0.3125 -4.453125 C -0.3125 -5.097656 -0.207031 -5.941406 0 -6.984375 L 2.65625 -19.5 L 8.265625 -19.5 L 5.453125 -6.234375 C 5.347656 -5.847656 5.296875 -5.429688 5.296875 -4.984375 C 5.296875 -4.472656 5.421875 -4.101562 5.671875 -3.875 C 5.921875 -3.65625 6.332031 -3.546875 6.90625 -3.546875 C 7.65625 -3.546875 8.351562 -3.863281 9 -4.5 C 9.65625 -5.132812 10.125 -5.960938 10.40625 -6.984375 L 12.046875 -6.984375 C 11.085938 -4.171875 9.851562 -2.265625 8.34375 -1.265625 C 6.832031 -0.265625 5.335938 0.234375 3.859375 0.234375 Z M 3.859375 0.234375 "/></g></g></g><g fill="#404559" fill-opacity="1"><g transform="translate(643.135034, 594.238444)"><g><path d="M 2.65625 -19.5 L 8.265625 -19.5 L 7.765625 -17.078125 C 8.648438 -17.859375 9.445312 -18.457031 10.15625 -18.875 C 10.875 -19.289062 11.648438 -19.5 12.484375 -19.5 C 13.316406 -19.5 13.972656 -19.210938 14.453125 -18.640625 C 14.929688 -18.066406 15.171875 -17.378906 15.171875 -16.578125 C 15.171875 -15.816406 14.921875 -15.148438 14.421875 -14.578125 C 13.929688 -14.015625 13.242188 -13.734375 12.359375 -13.734375 C 11.785156 -13.734375 11.398438 -13.867188 11.203125 -14.140625 C 11.015625 -14.410156 10.867188 -14.804688 10.765625 -15.328125 C 10.679688 -15.660156 10.597656 -15.90625 10.515625 -16.0625 C 10.441406 -16.21875 10.300781 -16.296875 10.09375 -16.296875 C 9.550781 -16.296875 9.09375 -16.1875 8.71875 -15.96875 C 8.34375 -15.75 7.851562 -15.363281 7.25 -14.8125 L 4.140625 0 L -1.484375 0 Z M 2.65625 -19.5 "/></g></g></g><g fill="#404559" fill-opacity="1"><g transform="translate(657.795403, 594.238444)"><g><path d="M 4.296875 0.15625 C 3.429688 0.15625 2.695312 -0.140625 2.09375 -0.734375 C 1.5 -1.335938 1.203125 -2.066406 1.203125 -2.921875 C 1.203125 -3.785156 1.5 -4.519531 2.09375 -5.125 C 2.695312 -5.738281 3.429688 -6.046875 4.296875 -6.046875 C 5.148438 -6.046875 5.878906 -5.738281 6.484375 -5.125 C 7.097656 -4.519531 7.40625 -3.785156 7.40625 -2.921875 C 7.40625 -2.066406 7.097656 -1.335938 6.484375 -0.734375 C 5.878906 -0.140625 5.148438 0.15625 4.296875 0.15625 Z M 4.296875 0.15625 "/></g></g></g><g fill="#404559" fill-opacity="1"><g transform="translate(668.049852, 594.238444)"><g/></g></g><g fill="#404559" fill-opacity="1"><g transform="translate(676.510749, 594.238444)"><g><path d="M 17 0.65625 C 14.976562 0.65625 13.96875 -0.210938 13.96875 -1.953125 C 13.96875 -2.523438 14.050781 -3.179688 14.21875 -3.921875 C 14.382812 -4.660156 14.625 -5.613281 14.9375 -6.78125 C 15.300781 -8.007812 15.570312 -9.050781 15.75 -9.90625 C 15.9375 -10.757812 16.03125 -11.523438 16.03125 -12.203125 C 16.03125 -13.972656 15.25 -14.859375 13.6875 -14.859375 C 13.269531 -14.859375 12.84375 -14.804688 12.40625 -14.703125 L 9.28125 0 L 3.671875 0 L 8.96875 -24.796875 L 14.734375 -25.578125 L 12.828125 -16.578125 L 13.140625 -16.578125 C 14.148438 -16.578125 15.082031 -16.925781 15.9375 -17.625 C 16.800781 -18.332031 17.472656 -19.210938 17.953125 -20.265625 C 18.441406 -21.316406 18.6875 -22.347656 18.6875 -23.359375 C 18.6875 -24.554688 18.328125 -25.535156 17.609375 -26.296875 C 16.890625 -27.066406 15.816406 -27.453125 14.390625 -27.453125 C 12.285156 -27.453125 10.4375 -27.070312 8.84375 -26.3125 C 7.257812 -25.5625 6.03125 -24.472656 5.15625 -23.046875 C 4.289062 -21.617188 3.859375 -19.929688 3.859375 -17.984375 C 3.859375 -17.015625 3.945312 -16.34375 4.125 -15.96875 C 4.3125 -15.59375 4.40625 -15.378906 4.40625 -15.328125 C 3 -15.328125 1.953125 -15.617188 1.265625 -16.203125 C 0.578125 -16.785156 0.234375 -17.753906 0.234375 -19.109375 C 0.234375 -20.773438 0.914062 -22.394531 2.28125 -23.96875 C 3.644531 -25.539062 5.390625 -26.8125 7.515625 -27.78125 C 9.648438 -28.757812 11.785156 -29.25 13.921875 -29.25 C 15.867188 -29.25 17.503906 -28.960938 18.828125 -28.390625 C 20.160156 -27.816406 21.148438 -27.054688 21.796875 -26.109375 C 22.453125 -25.160156 22.78125 -24.128906 22.78125 -23.015625 C 22.78125 -21.785156 22.398438 -20.5625 21.640625 -19.34375 C 20.890625 -18.125 19.863281 -17.125 18.5625 -16.34375 C 19.550781 -16.050781 20.242188 -15.570312 20.640625 -14.90625 C 21.046875 -14.25 21.25 -13.425781 21.25 -12.4375 C 21.25 -11.6875 21.15625 -10.890625 20.96875 -10.046875 C 20.789062 -9.203125 20.535156 -8.15625 20.203125 -6.90625 C 19.992188 -6.09375 19.796875 -5.296875 19.609375 -4.515625 C 19.429688 -3.742188 19.34375 -3.097656 19.34375 -2.578125 C 19.34375 -1.972656 19.476562 -1.4375 19.75 -0.96875 C 20.019531 -0.5 20.390625 -0.175781 20.859375 0 C 19.273438 0.4375 17.988281 0.65625 17 0.65625 Z M 17 0.65625 "/></g></g></g><g fill="#404559" fill-opacity="1"><g transform="translate(699.943929, 594.238444)"><g><path d="M 5.578125 0.234375 C 3.648438 0.234375 2.15625 -0.265625 1.09375 -1.265625 C 0.03125 -2.265625 -0.5 -3.832031 -0.5 -5.96875 C -0.5 -7.757812 -0.148438 -9.734375 0.546875 -11.890625 C 1.242188 -14.046875 2.382812 -15.910156 3.96875 -17.484375 C 5.5625 -19.054688 7.578125 -19.84375 10.015625 -19.84375 C 12.878906 -19.84375 14.3125 -18.597656 14.3125 -16.109375 C 14.3125 -14.648438 13.894531 -13.304688 13.0625 -12.078125 C 12.226562 -10.859375 11.125 -9.878906 9.75 -9.140625 C 8.375 -8.398438 6.90625 -7.976562 5.34375 -7.875 C 5.289062 -7.09375 5.265625 -6.570312 5.265625 -6.3125 C 5.265625 -5.039062 5.484375 -4.175781 5.921875 -3.71875 C 6.367188 -3.269531 7.085938 -3.046875 8.078125 -3.046875 C 9.472656 -3.046875 10.671875 -3.367188 11.671875 -4.015625 C 12.679688 -4.660156 13.78125 -5.648438 14.96875 -6.984375 L 16.296875 -6.984375 C 13.410156 -2.171875 9.835938 0.234375 5.578125 0.234375 Z M 5.65625 -9.75 C 6.613281 -9.800781 7.53125 -10.140625 8.40625 -10.765625 C 9.28125 -11.390625 9.984375 -12.179688 10.515625 -13.140625 C 11.046875 -14.109375 11.3125 -15.125 11.3125 -16.1875 C 11.3125 -17.25 10.984375 -17.78125 10.328125 -17.78125 C 9.398438 -17.78125 8.484375 -16.960938 7.578125 -15.328125 C 6.679688 -13.691406 6.039062 -11.832031 5.65625 -9.75 Z M 5.65625 -9.75 "/></g></g></g><g fill="#404559" fill-opacity="1"><g transform="translate(714.916214, 594.238444)"><g><path d="M 14.078125 0.234375 C 12.492188 0.234375 11.332031 -0.1875 10.59375 -1.03125 C 9.851562 -1.875 9.484375 -2.921875 9.484375 -4.171875 C 9.484375 -4.710938 9.546875 -5.328125 9.671875 -6.015625 C 9.796875 -6.710938 9.929688 -7.382812 10.078125 -8.03125 C 10.222656 -8.6875 10.320312 -9.101562 10.375 -9.28125 C 10.582031 -10.1875 10.773438 -11.082031 10.953125 -11.96875 C 11.140625 -12.851562 11.234375 -13.570312 11.234375 -14.125 C 11.234375 -15.445312 10.765625 -16.109375 9.828125 -16.109375 C 9.148438 -16.109375 8.550781 -15.773438 8.03125 -15.109375 C 7.507812 -14.453125 7.09375 -13.585938 6.78125 -12.515625 L 4.140625 0 L -1.484375 0 L 2.65625 -19.5 L 8.265625 -19.5 L 7.84375 -17.46875 C 9.132812 -18.925781 10.65625 -19.65625 12.40625 -19.65625 C 13.726562 -19.65625 14.78125 -19.289062 15.5625 -18.5625 C 16.34375 -17.832031 16.734375 -16.726562 16.734375 -15.25 C 16.734375 -14.5 16.640625 -13.660156 16.453125 -12.734375 C 16.273438 -11.804688 16.015625 -10.679688 15.671875 -9.359375 C 15.460938 -8.554688 15.273438 -7.769531 15.109375 -7 C 14.941406 -6.226562 14.859375 -5.625 14.859375 -5.1875 C 14.859375 -4.664062 14.972656 -4.257812 15.203125 -3.96875 C 15.441406 -3.6875 15.847656 -3.546875 16.421875 -3.546875 C 17.203125 -3.546875 17.828125 -3.820312 18.296875 -4.375 C 18.765625 -4.9375 19.226562 -5.804688 19.6875 -6.984375 L 21.328125 -6.984375 C 20.367188 -4.117188 19.257812 -2.195312 18 -1.21875 C 16.738281 -0.25 15.429688 0.234375 14.078125 0.234375 Z M 14.078125 0.234375 "/></g></g></g><g fill="#404559" fill-opacity="1"><g transform="translate(734.606334, 594.238444)"><g><path d="M 5.578125 0.234375 C 3.648438 0.234375 2.15625 -0.265625 1.09375 -1.265625 C 0.03125 -2.265625 -0.5 -3.832031 -0.5 -5.96875 C -0.5 -7.757812 -0.148438 -9.734375 0.546875 -11.890625 C 1.242188 -14.046875 2.382812 -15.910156 3.96875 -17.484375 C 5.5625 -19.054688 7.578125 -19.84375 10.015625 -19.84375 C 12.878906 -19.84375 14.3125 -18.597656 14.3125 -16.109375 C 14.3125 -14.648438 13.894531 -13.304688 13.0625 -12.078125 C 12.226562 -10.859375 11.125 -9.878906 9.75 -9.140625 C 8.375 -8.398438 6.90625 -7.976562 5.34375 -7.875 C 5.289062 -7.09375 5.265625 -6.570312 5.265625 -6.3125 C 5.265625 -5.039062 5.484375 -4.175781 5.921875 -3.71875 C 6.367188 -3.269531 7.085938 -3.046875 8.078125 -3.046875 C 9.472656 -3.046875 10.671875 -3.367188 11.671875 -4.015625 C 12.679688 -4.660156 13.78125 -5.648438 14.96875 -6.984375 L 16.296875 -6.984375 C 13.410156 -2.171875 9.835938 0.234375 5.578125 0.234375 Z M 5.65625 -9.75 C 6.613281 -9.800781 7.53125 -10.140625 8.40625 -10.765625 C 9.28125 -11.390625 9.984375 -12.179688 10.515625 -13.140625 C 11.046875 -14.109375 11.3125 -15.125 11.3125 -16.1875 C 11.3125 -17.25 10.984375 -17.78125 10.328125 -17.78125 C 9.398438 -17.78125 8.484375 -16.960938 7.578125 -15.328125 C 6.679688 -13.691406 6.039062 -11.832031 5.65625 -9.75 Z M 5.65625 -9.75 "/></g></g></g><g fill="#404559" fill-opacity="1"><g transform="translate(749.578618, 594.238444)"><g><path d="M 3.859375 0.234375 C 2.609375 0.234375 1.597656 -0.15625 0.828125 -0.9375 C 0.0664062 -1.71875 -0.3125 -2.890625 -0.3125 -4.453125 C -0.3125 -5.097656 -0.207031 -5.941406 0 -6.984375 L 2.65625 -19.5 L 8.265625 -19.5 L 5.453125 -6.234375 C 5.378906 -5.921875 5.34375 -5.597656 5.34375 -5.265625 C 5.34375 -4.117188 5.734375 -3.546875 6.515625 -3.546875 C 7.242188 -3.546875 7.867188 -3.847656 8.390625 -4.453125 C 8.910156 -5.066406 9.328125 -5.910156 9.640625 -6.984375 L 12.28125 -19.5 L 17.90625 -19.5 L 15.09375 -6.234375 C 14.957031 -5.585938 14.890625 -5.125 14.890625 -4.84375 C 14.890625 -3.976562 15.332031 -3.546875 16.21875 -3.546875 C 17.414062 -3.546875 18.523438 -4.300781 19.546875 -5.8125 C 20.578125 -7.320312 21.40625 -9.113281 22.03125 -11.1875 C 22.65625 -13.269531 22.96875 -15.066406 22.96875 -16.578125 C 22.914062 -16.441406 22.742188 -16.34375 22.453125 -16.28125 C 22.171875 -16.21875 21.925781 -16.1875 21.71875 -16.1875 C 21.28125 -16.1875 20.9375 -16.394531 20.6875 -16.8125 C 20.4375 -17.226562 20.3125 -17.679688 20.3125 -18.171875 C 20.3125 -18.796875 20.515625 -19.300781 20.921875 -19.6875 C 21.328125 -20.082031 21.929688 -20.28125 22.734375 -20.28125 C 23.597656 -20.28125 24.222656 -19.960938 24.609375 -19.328125 C 24.992188 -18.691406 25.1875 -17.878906 25.1875 -16.890625 C 25.1875 -14.546875 24.785156 -12.039062 23.984375 -9.375 C 23.179688 -6.707031 21.945312 -4.4375 20.28125 -2.5625 C 18.613281 -0.695312 16.546875 0.234375 14.078125 0.234375 C 12.804688 0.234375 11.765625 -0.0351562 10.953125 -0.578125 C 10.148438 -1.128906 9.632812 -1.953125 9.40625 -3.046875 C 7.945312 -0.859375 6.097656 0.234375 3.859375 0.234375 Z M 3.859375 0.234375 "/></g></g></g><g fill="#404559" fill-opacity="1"><g transform="translate(775.351223, 594.238444)"><g><path d="M 4.296875 0.15625 C 3.429688 0.15625 2.695312 -0.140625 2.09375 -0.734375 C 1.5 -1.335938 1.203125 -2.066406 1.203125 -2.921875 C 1.203125 -3.785156 1.5 -4.519531 2.09375 -5.125 C 2.695312 -5.738281 3.429688 -6.046875 4.296875 -6.046875 C 5.148438 -6.046875 5.878906 -5.738281 6.484375 -5.125 C 7.097656 -4.519531 7.40625 -3.785156 7.40625 -2.921875 C 7.40625 -2.066406 7.097656 -1.335938 6.484375 -0.734375 C 5.878906 -0.140625 5.148438 0.15625 4.296875 0.15625 Z M 4.296875 0.15625 "/></g></g></g><g fill="#404559" fill-opacity="1"><g transform="translate(785.605671, 594.238444)"><g/></g></g><g fill="#404559" fill-opacity="1"><g transform="translate(794.066568, 594.238444)"><g><path d="M 17 0.65625 C 14.976562 0.65625 13.96875 -0.210938 13.96875 -1.953125 C 13.96875 -2.523438 14.050781 -3.179688 14.21875 -3.921875 C 14.382812 -4.660156 14.625 -5.613281 14.9375 -6.78125 C 15.300781 -8.007812 15.570312 -9.050781 15.75 -9.90625 C 15.9375 -10.757812 16.03125 -11.523438 16.03125 -12.203125 C 16.03125 -13.972656 15.25 -14.859375 13.6875 -14.859375 C 13.269531 -14.859375 12.84375 -14.804688 12.40625 -14.703125 L 9.28125 0 L 3.671875 0 L 8.96875 -24.796875 L 14.734375 -25.578125 L 12.828125 -16.578125 L 13.140625 -16.578125 C 14.148438 -16.578125 15.082031 -16.925781 15.9375 -17.625 C 16.800781 -18.332031 17.472656 -19.210938 17.953125 -20.265625 C 18.441406 -21.316406 18.6875 -22.347656 18.6875 -23.359375 C 18.6875 -24.554688 18.328125 -25.535156 17.609375 -26.296875 C 16.890625 -27.066406 15.816406 -27.453125 14.390625 -27.453125 C 12.285156 -27.453125 10.4375 -27.070312 8.84375 -26.3125 C 7.257812 -25.5625 6.03125 -24.472656 5.15625 -23.046875 C 4.289062 -21.617188 3.859375 -19.929688 3.859375 -17.984375 C 3.859375 -17.015625 3.945312 -16.34375 4.125 -15.96875 C 4.3125 -15.59375 4.40625 -15.378906 4.40625 -15.328125 C 3 -15.328125 1.953125 -15.617188 1.265625 -16.203125 C 0.578125 -16.785156 0.234375 -17.753906 0.234375 -19.109375 C 0.234375 -20.773438 0.914062 -22.394531 2.28125 -23.96875 C 3.644531 -25.539062 5.390625 -26.8125 7.515625 -27.78125 C 9.648438 -28.757812 11.785156 -29.25 13.921875 -29.25 C 15.867188 -29.25 17.503906 -28.960938 18.828125 -28.390625 C 20.160156 -27.816406 21.148438 -27.054688 21.796875 -26.109375 C 22.453125 -25.160156 22.78125 -24.128906 22.78125 -23.015625 C 22.78125 -21.785156 22.398438 -20.5625 21.640625 -19.34375 C 20.890625 -18.125 19.863281 -17.125 18.5625 -16.34375 C 19.550781 -16.050781 20.242188 -15.570312 20.640625 -14.90625 C 21.046875 -14.25 21.25 -13.425781 21.25 -12.4375 C 21.25 -11.6875 21.15625 -10.890625 20.96875 -10.046875 C 20.789062 -9.203125 20.535156 -8.15625 20.203125 -6.90625 C 19.992188 -6.09375 19.796875 -5.296875 19.609375 -4.515625 C 19.429688 -3.742188 19.34375 -3.097656 19.34375 -2.578125 C 19.34375 -1.972656 19.476562 -1.4375 19.75 -0.96875 C 20.019531 -0.5 20.390625 -0.175781 20.859375 0 C 19.273438 0.4375 17.988281 0.65625 17 0.65625 Z M 17 0.65625 "/></g></g></g><g fill="#404559" fill-opacity="1"><g transform="translate(817.499749, 594.238444)"><g><path d="M 5.578125 0.234375 C 3.648438 0.234375 2.15625 -0.265625 1.09375 -1.265625 C 0.03125 -2.265625 -0.5 -3.832031 -0.5 -5.96875 C -0.5 -7.757812 -0.148438 -9.734375 0.546875 -11.890625 C 1.242188 -14.046875 2.382812 -15.910156 3.96875 -17.484375 C 5.5625 -19.054688 7.578125 -19.84375 10.015625 -19.84375 C 12.878906 -19.84375 14.3125 -18.597656 14.3125 -16.109375 C 14.3125 -14.648438 13.894531 -13.304688 13.0625 -12.078125 C 12.226562 -10.859375 11.125 -9.878906 9.75 -9.140625 C 8.375 -8.398438 6.90625 -7.976562 5.34375 -7.875 C 5.289062 -7.09375 5.265625 -6.570312 5.265625 -6.3125 C 5.265625 -5.039062 5.484375 -4.175781 5.921875 -3.71875 C 6.367188 -3.269531 7.085938 -3.046875 8.078125 -3.046875 C 9.472656 -3.046875 10.671875 -3.367188 11.671875 -4.015625 C 12.679688 -4.660156 13.78125 -5.648438 14.96875 -6.984375 L 16.296875 -6.984375 C 13.410156 -2.171875 9.835938 0.234375 5.578125 0.234375 Z M 5.65625 -9.75 C 6.613281 -9.800781 7.53125 -10.140625 8.40625 -10.765625 C 9.28125 -11.390625 9.984375 -12.179688 10.515625 -13.140625 C 11.046875 -14.109375 11.3125 -15.125 11.3125 -16.1875 C 11.3125 -17.25 10.984375 -17.78125 10.328125 -17.78125 C 9.398438 -17.78125 8.484375 -16.960938 7.578125 -15.328125 C 6.679688 -13.691406 6.039062 -11.832031 5.65625 -9.75 Z M 5.65625 -9.75 "/></g></g></g><g fill="#404559" fill-opacity="1"><g transform="translate(832.472033, 594.238444)"><g><path d="M 3.859375 0.234375 C 2.609375 0.234375 1.597656 -0.15625 0.828125 -0.9375 C 0.0664062 -1.71875 -0.3125 -2.890625 -0.3125 -4.453125 C -0.3125 -5.097656 -0.207031 -5.941406 0 -6.984375 L 4.171875 -26.515625 L 9.9375 -27.296875 L 5.453125 -6.234375 C 5.347656 -5.847656 5.296875 -5.429688 5.296875 -4.984375 C 5.296875 -4.472656 5.421875 -4.101562 5.671875 -3.875 C 5.921875 -3.65625 6.332031 -3.546875 6.90625 -3.546875 C 7.65625 -3.546875 8.351562 -3.863281 9 -4.5 C 9.65625 -5.132812 10.125 -5.960938 10.40625 -6.984375 L 12.046875 -6.984375 C 11.085938 -4.171875 9.851562 -2.265625 8.34375 -1.265625 C 6.832031 -0.265625 5.335938 0.234375 3.859375 0.234375 Z M 3.859375 0.234375 "/></g></g></g><g fill="#404559" fill-opacity="1"><g transform="translate(842.882459, 594.238444)"><g><path d="M 6.515625 -21.609375 C 5.648438 -21.609375 4.921875 -21.90625 4.328125 -22.5 C 3.734375 -23.101562 3.4375 -23.832031 3.4375 -24.6875 C 3.4375 -25.539062 3.734375 -26.273438 4.328125 -26.890625 C 4.921875 -27.503906 5.648438 -27.8125 6.515625 -27.8125 C 7.367188 -27.8125 8.101562 -27.503906 8.71875 -26.890625 C 9.332031 -26.273438 9.640625 -25.539062 9.640625 -24.6875 C 9.640625 -23.832031 9.332031 -23.101562 8.71875 -22.5 C 8.101562 -21.90625 7.367188 -21.609375 6.515625 -21.609375 Z M 3.859375 0.234375 C 2.609375 0.234375 1.597656 -0.15625 0.828125 -0.9375 C 0.0664062 -1.71875 -0.3125 -2.890625 -0.3125 -4.453125 C -0.3125 -5.097656 -0.207031 -5.941406 0 -6.984375 L 2.65625 -19.5 L 8.265625 -19.5 L 5.453125 -6.234375 C 5.347656 -5.847656 5.296875 -5.429688 5.296875 -4.984375 C 5.296875 -4.472656 5.421875 -4.101562 5.671875 -3.875 C 5.921875 -3.65625 6.332031 -3.546875 6.90625 -3.546875 C 7.65625 -3.546875 8.351562 -3.863281 9 -4.5 C 9.65625 -5.132812 10.125 -5.960938 10.40625 -6.984375 L 12.046875 -6.984375 C 11.085938 -4.171875 9.851562 -2.265625 8.34375 -1.265625 C 6.832031 -0.265625 5.335938 0.234375 3.859375 0.234375 Z M 3.859375 0.234375 "/></g></g></g><g fill="#404559" fill-opacity="1"><g transform="translate(853.292885, 594.238444)"><g><path d="M 4.453125 0.234375 C 2.941406 0.234375 1.765625 -0.144531 0.921875 -0.90625 C 0.078125 -1.675781 -0.34375 -2.832031 -0.34375 -4.375 C -0.34375 -4.988281 -0.28125 -5.609375 -0.15625 -6.234375 L 2.65625 -19.5 L 8.265625 -19.5 L 5.453125 -6.234375 C 5.328125 -5.585938 5.265625 -5.125 5.265625 -4.84375 C 5.265625 -3.976562 5.707031 -3.546875 6.59375 -3.546875 C 7.789062 -3.546875 8.898438 -4.300781 9.921875 -5.8125 C 10.953125 -7.320312 11.78125 -9.113281 12.40625 -11.1875 C 13.03125 -13.269531 13.34375 -15.066406 13.34375 -16.578125 C 13.289062 -16.441406 13.117188 -16.34375 12.828125 -16.28125 C 12.546875 -16.21875 12.300781 -16.1875 12.09375 -16.1875 C 11.644531 -16.1875 11.296875 -16.394531 11.046875 -16.8125 C 10.804688 -17.226562 10.6875 -17.679688 10.6875 -18.171875 C 10.6875 -18.796875 10.882812 -19.300781 11.28125 -19.6875 C 11.6875 -20.082031 12.296875 -20.28125 13.109375 -20.28125 C 13.960938 -20.28125 14.582031 -19.960938 14.96875 -19.328125 C 15.363281 -18.691406 15.5625 -17.878906 15.5625 -16.890625 C 15.5625 -14.546875 15.15625 -12.039062 14.34375 -9.375 C 13.539062 -6.707031 12.304688 -4.4375 10.640625 -2.5625 C 8.984375 -0.695312 6.921875 0.234375 4.453125 0.234375 Z M 4.453125 0.234375 "/></g></g></g><g fill="#404559" fill-opacity="1"><g transform="translate(869.434871, 594.238444)"><g><path d="M 5.578125 0.234375 C 3.648438 0.234375 2.15625 -0.265625 1.09375 -1.265625 C 0.03125 -2.265625 -0.5 -3.832031 -0.5 -5.96875 C -0.5 -7.757812 -0.148438 -9.734375 0.546875 -11.890625 C 1.242188 -14.046875 2.382812 -15.910156 3.96875 -17.484375 C 5.5625 -19.054688 7.578125 -19.84375 10.015625 -19.84375 C 12.878906 -19.84375 14.3125 -18.597656 14.3125 -16.109375 C 14.3125 -14.648438 13.894531 -13.304688 13.0625 -12.078125 C 12.226562 -10.859375 11.125 -9.878906 9.75 -9.140625 C 8.375 -8.398438 6.90625 -7.976562 5.34375 -7.875 C 5.289062 -7.09375 5.265625 -6.570312 5.265625 -6.3125 C 5.265625 -5.039062 5.484375 -4.175781 5.921875 -3.71875 C 6.367188 -3.269531 7.085938 -3.046875 8.078125 -3.046875 C 9.472656 -3.046875 10.671875 -3.367188 11.671875 -4.015625 C 12.679688 -4.660156 13.78125 -5.648438 14.96875 -6.984375 L 16.296875 -6.984375 C 13.410156 -2.171875 9.835938 0.234375 5.578125 0.234375 Z M 5.65625 -9.75 C 6.613281 -9.800781 7.53125 -10.140625 8.40625 -10.765625 C 9.28125 -11.390625 9.984375 -12.179688 10.515625 -13.140625 C 11.046875 -14.109375 11.3125 -15.125 11.3125 -16.1875 C 11.3125 -17.25 10.984375 -17.78125 10.328125 -17.78125 C 9.398438 -17.78125 8.484375 -16.960938 7.578125 -15.328125 C 6.679688 -13.691406 6.039062 -11.832031 5.65625 -9.75 Z M 5.65625 -9.75 "/></g></g></g></svg>