<svg xmlns="http://www.w3.org/2000/svg" xmlns:xlink="http://www.w3.org/1999/xlink" width="376" zoomAndPan="magnify" viewBox="0 0 282 101.999999" height="136" preserveAspectRatio="xMidYMid meet" version="1.0"><defs><g/><clipPath id="be5eda422c"><path d="M 6.796875 6.695312 L 282 6.695312 L 282 101.828125 L 6.796875 101.828125 Z M 6.796875 6.695312 " clip-rule="nonzero"/></clipPath><clipPath id="acf3d7e827"><path d="M 9.734375 6.695312 L 279.058594 6.695312 C 279.839844 6.695312 280.585938 7.003906 281.140625 7.554688 C 281.691406 8.105469 282 8.855469 282 9.632812 L 282 98.886719 C 282 99.667969 281.691406 100.414062 281.140625 100.964844 C 280.585938 101.515625 279.839844 101.828125 279.058594 101.828125 L 9.734375 101.828125 C 8.957031 101.828125 8.207031 101.515625 7.65625 100.964844 C 7.105469 100.414062 6.796875 99.667969 6.796875 98.886719 L 6.796875 9.632812 C 6.796875 8.855469 7.105469 8.105469 7.65625 7.554688 C 8.207031 7.003906 8.957031 6.695312 9.734375 6.695312 Z M 9.734375 6.695312 " clip-rule="nonzero"/></clipPath><clipPath id="2cf8ff0e36"><path d="M 6.8125 6.695312 L 282 6.695312 L 282 101.945312 L 6.8125 101.945312 Z M 6.8125 6.695312 " clip-rule="nonzero"/></clipPath><clipPath id="3f1c1ca3e2"><path d="M 9.75 6.695312 L 279.042969 6.695312 C 279.824219 6.695312 280.570312 7.003906 281.121094 7.554688 C 281.671875 8.105469 281.984375 8.855469 281.984375 9.632812 L 281.984375 98.875 C 281.984375 99.65625 281.671875 100.402344 281.121094 100.953125 C 280.570312 101.503906 279.824219 101.816406 279.042969 101.816406 L 9.75 101.816406 C 8.972656 101.816406 8.222656 101.503906 7.671875 100.953125 C 7.121094 100.402344 6.8125 99.65625 6.8125 98.875 L 6.8125 9.632812 C 6.8125 8.855469 7.121094 8.105469 7.671875 7.554688 C 8.222656 7.003906 8.972656 6.695312 9.75 6.695312 Z M 9.75 6.695312 " clip-rule="nonzero"/></clipPath><clipPath id="725ad1e16e"><path d="M 3.398438 3.296875 L 278.761719 3.296875 L 278.761719 98.429688 L 3.398438 98.429688 Z M 3.398438 3.296875 " clip-rule="nonzero"/></clipPath><clipPath id="37c84bbb8c"><path d="M 6.335938 3.296875 L 275.664062 3.296875 C 276.441406 3.296875 277.191406 3.605469 277.742188 4.15625 C 278.292969 4.710938 278.601562 5.457031 278.601562 6.238281 L 278.601562 95.488281 C 278.601562 96.269531 278.292969 97.015625 277.742188 97.566406 C 277.191406 98.121094 276.441406 98.429688 275.664062 98.429688 L 6.335938 98.429688 C 5.558594 98.429688 4.808594 98.121094 4.257812 97.566406 C 3.707031 97.015625 3.398438 96.269531 3.398438 95.488281 L 3.398438 6.238281 C 3.398438 5.457031 3.707031 4.710938 4.257812 4.15625 C 4.808594 3.605469 5.558594 3.296875 6.335938 3.296875 Z M 6.335938 3.296875 " clip-rule="nonzero"/></clipPath><clipPath id="e5f39dd589"><path d="M 3.414062 3.296875 L 278.648438 3.296875 L 278.648438 98.546875 L 3.414062 98.546875 Z M 3.414062 3.296875 " clip-rule="nonzero"/></clipPath><clipPath id="33f9534eaf"><path d="M 6.351562 3.296875 L 275.644531 3.296875 C 276.425781 3.296875 277.171875 3.605469 277.722656 4.15625 C 278.273438 4.710938 278.585938 5.457031 278.585938 6.238281 L 278.585938 95.476562 C 278.585938 96.257812 278.273438 97.003906 277.722656 97.558594 C 277.171875 98.109375 276.425781 98.417969 275.644531 98.417969 L 6.351562 98.417969 C 5.574219 98.417969 4.824219 98.109375 4.273438 97.558594 C 3.722656 97.003906 3.414062 96.257812 3.414062 95.476562 L 3.414062 6.238281 C 3.414062 5.457031 3.722656 4.710938 4.273438 4.15625 C 4.824219 3.605469 5.574219 3.296875 6.351562 3.296875 Z M 6.351562 3.296875 " clip-rule="nonzero"/></clipPath><clipPath id="3c5cd43646"><path d="M 0 0 L 275.363281 0 L 275.363281 95.03125 L 0 95.03125 Z M 0 0 " clip-rule="nonzero"/></clipPath><clipPath id="6f682e972b"><path d="M 2.941406 -0.101562 L 272.265625 -0.101562 C 273.042969 -0.101562 273.792969 0.210938 274.34375 0.761719 C 274.894531 1.3125 275.203125 2.058594 275.203125 2.839844 L 275.203125 92.09375 C 275.203125 92.871094 274.894531 93.621094 274.34375 94.171875 C 273.792969 94.722656 273.042969 95.03125 272.265625 95.03125 L 2.941406 95.03125 C 2.160156 95.03125 1.414062 94.722656 0.859375 94.171875 C 0.308594 93.621094 0 92.871094 0 92.09375 L 0 2.839844 C 0 2.058594 0.308594 1.3125 0.859375 0.761719 C 1.414062 0.210938 2.160156 -0.101562 2.941406 -0.101562 Z M 2.941406 -0.101562 " clip-rule="nonzero"/></clipPath><clipPath id="664208f20a"><path d="M 0.015625 0 L 275.25 0 L 275.25 95.148438 L 0.015625 95.148438 Z M 0.015625 0 " clip-rule="nonzero"/></clipPath><clipPath id="f22ab50c21"><path d="M 2.957031 -0.101562 L 272.246094 -0.101562 C 273.027344 -0.101562 273.773438 0.210938 274.328125 0.761719 C 274.878906 1.3125 275.1875 2.058594 275.1875 2.839844 L 275.1875 92.082031 C 275.1875 92.859375 274.878906 93.609375 274.328125 94.160156 C 273.773438 94.710938 273.027344 95.019531 272.246094 95.019531 L 2.957031 95.019531 C 2.175781 95.019531 1.429688 94.710938 0.875 94.160156 C 0.324219 93.609375 0.015625 92.859375 0.015625 92.082031 L 0.015625 2.839844 C 0.015625 2.058594 0.324219 1.3125 0.875 0.761719 C 1.429688 0.210938 2.175781 -0.101562 2.957031 -0.101562 Z M 2.957031 -0.101562 " clip-rule="nonzero"/></clipPath></defs><g clip-path="url(#be5eda422c)"><g clip-path="url(#acf3d7e827)"><path fill="#bbcabf" d="M 6.796875 6.695312 L 282.160156 6.695312 L 282.160156 101.828125 L 6.796875 101.828125 Z M 6.796875 6.695312 " fill-opacity="1" fill-rule="nonzero"/></g></g><g clip-path="url(#2cf8ff0e36)"><g clip-path="url(#3f1c1ca3e2)"><path stroke-linecap="butt" transform="matrix(0.75, 0, 0, 0.75, 6.810874, 6.694457)" fill="none" stroke-linejoin="miter" d="M 3.918834 0.00114065 L 362.976121 0.00114065 C 364.017788 0.00114065 365.01258 0.412599 365.746955 1.146974 C 366.48133 1.881349 366.897996 2.881349 366.897996 3.917807 L 366.897996 122.907389 C 366.897996 123.949056 366.48133 124.943847 365.746955 125.678222 C 365.01258 126.412597 364.017788 126.829264 362.976121 126.829264 L 3.918834 126.829264 C 2.882376 126.829264 1.882376 126.412597 1.148001 125.678222 C 0.413626 124.943847 0.00216748 123.949056 0.00216748 122.907389 L 0.00216748 3.917807 C 0.00216748 2.881349 0.413626 1.881349 1.148001 1.146974 C 1.882376 0.412599 2.882376 0.00114065 3.918834 0.00114065 Z M 3.918834 0.00114065 " stroke="#929ca1" stroke-width="2" stroke-opacity="1" stroke-miterlimit="4"/></g></g><g clip-path="url(#725ad1e16e)"><g clip-path="url(#37c84bbb8c)"><path fill="#b6cab6" d="M 3.398438 3.296875 L 278.761719 3.296875 L 278.761719 98.429688 L 3.398438 98.429688 Z M 3.398438 3.296875 " fill-opacity="1" fill-rule="nonzero"/></g></g><g clip-path="url(#e5f39dd589)"><g clip-path="url(#33f9534eaf)"><path stroke-linecap="butt" transform="matrix(0.75, 0, 0, 0.75, 3.413284, 3.296867)" fill="none" stroke-linejoin="miter" d="M 3.917704 0.0000102849 L 362.974992 0.0000102849 C 364.016658 0.0000102849 365.01145 0.411469 365.745825 1.145844 C 366.4802 1.885427 366.896866 2.880219 366.896866 3.921885 L 366.896866 122.906259 C 366.896866 123.947925 366.4802 124.942717 365.745825 125.6823 C 365.01145 126.416675 364.016658 126.828134 362.974992 126.828134 L 3.917704 126.828134 C 2.881246 126.828134 1.881246 126.416675 1.146871 125.6823 C 0.412496 124.942717 0.00103772 123.947925 0.00103772 122.906259 L 0.00103772 3.921885 C 0.00103772 2.880219 0.412496 1.885427 1.146871 1.145844 C 1.881246 0.411469 2.881246 0.0000102849 3.917704 0.0000102849 Z M 3.917704 0.0000102849 " stroke="#747d84" stroke-width="2" stroke-opacity="1" stroke-miterlimit="4"/></g></g><g clip-path="url(#3c5cd43646)"><g clip-path="url(#6f682e972b)"><path fill="#b6cdb1" d="M 0 -0.101562 L 275.363281 -0.101562 L 275.363281 95.03125 L 0 95.03125 Z M 0 -0.101562 " fill-opacity="1" fill-rule="nonzero"/></g></g><g clip-path="url(#664208f20a)"><g clip-path="url(#f22ab50c21)"><path stroke-linecap="butt" transform="matrix(0.75, 0, 0, 0.75, 0.0156943, -0.100723)" fill="none" stroke-linejoin="miter" d="M 3.921783 -0.00111933 L 362.973861 -0.00111933 C 364.015528 -0.00111933 365.01032 0.415547 365.749903 1.149922 C 366.484278 1.884297 366.895736 2.879089 366.895736 3.920756 L 366.895736 122.910337 C 366.895736 123.946796 366.484278 124.946796 365.749903 125.681171 C 365.01032 126.415546 364.015528 126.827004 362.973861 126.827004 L 3.921783 126.827004 C 2.880116 126.827004 1.885324 126.415546 1.145741 125.681171 C 0.411366 124.946796 -0.0000923903 123.946796 -0.0000923903 122.910337 L -0.0000923903 3.920756 C -0.0000923903 2.879089 0.411366 1.884297 1.145741 1.149922 C 1.885324 0.415547 2.880116 -0.00111933 3.921783 -0.00111933 Z M 3.921783 -0.00111933 " stroke="#404559" stroke-width="2" stroke-opacity="1" stroke-miterlimit="4"/></g></g><g fill="#404559" fill-opacity="1"><g transform="translate(6.59465, 83.597713)"><g><path d="M 22.15625 -61.28125 L 36.421875 -63.21875 L 29.578125 -31.03125 C 32.660156 -31.28125 35.503906 -32.625 38.109375 -35.0625 C 40.710938 -37.507812 42.75 -40.53125 44.21875 -44.125 C 45.695312 -47.726562 46.4375 -51.265625 46.4375 -54.734375 C 46.4375 -58.585938 45.441406 -61.734375 43.453125 -64.171875 C 41.460938 -66.617188 38.476562 -67.84375 34.5 -67.84375 C 26.65625 -67.84375 20.535156 -65.785156 16.140625 -61.671875 C 11.742188 -57.554688 9.546875 -51.804688 9.546875 -44.421875 C 9.546875 -42.046875 9.769531 -40.390625 10.21875 -39.453125 C 10.664062 -38.523438 10.890625 -38 10.890625 -37.875 C 7.421875 -37.875 4.832031 -38.59375 3.125 -40.03125 C 1.425781 -41.476562 0.578125 -43.875 0.578125 -47.21875 C 0.578125 -51.332031 2.265625 -55.332031 5.640625 -59.21875 C 9.015625 -63.101562 13.332031 -66.25 18.59375 -68.65625 C 23.863281 -71.0625 29.132812 -72.265625 34.40625 -72.265625 C 39.476562 -72.265625 43.71875 -71.394531 47.125 -69.65625 C 50.53125 -67.925781 53.050781 -65.628906 54.6875 -62.765625 C 56.320312 -59.910156 57.140625 -56.75 57.140625 -53.28125 C 57.140625 -49.101562 56 -45.023438 53.71875 -41.046875 C 51.4375 -37.066406 48.175781 -33.804688 43.9375 -31.265625 C 39.695312 -28.734375 34.816406 -27.46875 29.296875 -27.46875 L 28.8125 -27.46875 L 22.9375 0 L 9.0625 0 Z M 22.15625 -61.28125 "/></g></g></g><g fill="#404559" fill-opacity="1"><g transform="translate(61.804645, 83.597713)"><g><path d="M 34.78125 0.578125 C 30.863281 0.578125 27.988281 -0.460938 26.15625 -2.546875 C 24.332031 -4.640625 23.421875 -7.226562 23.421875 -10.3125 C 23.421875 -11.65625 23.578125 -13.175781 23.890625 -14.875 C 24.210938 -16.582031 24.550781 -18.238281 24.90625 -19.84375 C 25.257812 -21.457031 25.5 -22.488281 25.625 -22.9375 C 26.144531 -25.1875 26.628906 -27.398438 27.078125 -29.578125 C 27.523438 -31.765625 27.75 -33.53125 27.75 -34.875 C 27.75 -38.15625 26.59375 -39.796875 24.28125 -39.796875 C 22.613281 -39.796875 21.132812 -38.972656 19.84375 -37.328125 C 18.5625 -35.691406 17.535156 -33.5625 16.765625 -30.9375 L 10.21875 0 L -3.65625 0 L 10.3125 -65.53125 L 24.578125 -67.453125 L 19.375 -43.171875 C 22.582031 -46.765625 26.335938 -48.5625 30.640625 -48.5625 C 33.921875 -48.5625 36.523438 -47.660156 38.453125 -45.859375 C 40.378906 -44.066406 41.34375 -41.335938 41.34375 -37.671875 C 41.34375 -35.804688 41.113281 -33.734375 40.65625 -31.453125 C 40.207031 -29.179688 39.566406 -26.40625 38.734375 -23.125 C 38.222656 -21.132812 37.757812 -19.191406 37.34375 -17.296875 C 36.925781 -15.398438 36.71875 -13.90625 36.71875 -12.8125 C 36.71875 -11.53125 37.003906 -10.535156 37.578125 -9.828125 C 38.160156 -9.117188 39.15625 -8.765625 40.5625 -8.765625 C 42.488281 -8.765625 44.03125 -9.453125 45.1875 -10.828125 C 46.34375 -12.210938 47.5 -14.351562 48.65625 -17.25 L 52.703125 -17.25 C 50.328125 -10.1875 47.582031 -5.445312 44.46875 -3.03125 C 41.351562 -0.625 38.125 0.578125 34.78125 0.578125 Z M 34.78125 0.578125 "/></g></g></g><g fill="#404559" fill-opacity="1"><g transform="translate(110.462669, 83.597713)"><g><path d="M 16.09375 -53.390625 C 13.96875 -53.390625 12.164062 -54.125 10.6875 -55.59375 C 9.21875 -57.070312 8.484375 -58.875 8.484375 -61 C 8.484375 -63.113281 9.21875 -64.925781 10.6875 -66.4375 C 12.164062 -67.945312 13.96875 -68.703125 16.09375 -68.703125 C 18.207031 -68.703125 20.019531 -67.945312 21.53125 -66.4375 C 23.039062 -64.925781 23.796875 -63.113281 23.796875 -61 C 23.796875 -58.875 23.039062 -57.070312 21.53125 -55.59375 C 20.019531 -54.125 18.207031 -53.390625 16.09375 -53.390625 Z M 9.546875 0.578125 C 6.460938 0.578125 3.972656 -0.382812 2.078125 -2.3125 C 0.179688 -4.238281 -0.765625 -7.128906 -0.765625 -10.984375 C -0.765625 -12.585938 -0.507812 -14.675781 0 -17.25 L 6.546875 -48.1875 L 20.421875 -48.1875 L 13.484375 -15.421875 C 13.234375 -14.453125 13.109375 -13.421875 13.109375 -12.328125 C 13.109375 -11.046875 13.410156 -10.128906 14.015625 -9.578125 C 14.628906 -9.035156 15.644531 -8.765625 17.0625 -8.765625 C 18.914062 -8.765625 20.644531 -9.550781 22.25 -11.125 C 23.863281 -12.695312 25.023438 -14.738281 25.734375 -17.25 L 29.78125 -17.25 C 27.394531 -10.3125 24.335938 -5.601562 20.609375 -3.125 C 16.890625 -0.65625 13.203125 0.578125 9.546875 0.578125 Z M 9.546875 0.578125 "/></g></g></g><g fill="#404559" fill-opacity="1"><g transform="translate(136.188787, 83.597713)"><g><path d="M 14.0625 0.390625 C 9.3125 0.390625 5.554688 -0.828125 2.796875 -3.265625 C 0.0351562 -5.710938 -1.34375 -9.570312 -1.34375 -14.84375 C -1.34375 -19.207031 -0.445312 -24.054688 1.34375 -29.390625 C 3.144531 -34.722656 6.035156 -39.332031 10.015625 -43.21875 C 14.003906 -47.101562 19.015625 -49.046875 25.046875 -49.046875 C 33.273438 -49.046875 37.390625 -43.90625 37.390625 -33.625 L 37.390625 -33.53125 C 37.578125 -33.46875 37.929688 -33.4375 38.453125 -33.4375 C 40.566406 -33.4375 43.003906 -34 45.765625 -35.125 C 48.535156 -36.25 51.039062 -37.613281 53.28125 -39.21875 L 54.15625 -36.609375 C 52.289062 -34.617188 49.863281 -32.929688 46.875 -31.546875 C 43.882812 -30.171875 40.625 -29.195312 37.09375 -28.625 C 36.582031 -22.769531 35.265625 -17.660156 33.140625 -13.296875 C 31.023438 -8.929688 28.296875 -5.554688 24.953125 -3.171875 C 21.617188 -0.796875 17.988281 0.390625 14.0625 0.390625 Z M 17.921875 -8.28125 C 19.460938 -8.28125 21.003906 -9.164062 22.546875 -10.9375 C 24.085938 -12.707031 25.4375 -15.113281 26.59375 -18.15625 C 27.75 -21.207031 28.582031 -24.597656 29.09375 -28.328125 C 27.363281 -28.710938 26.5 -30.0625 26.5 -32.375 C 26.5 -35.007812 27.492188 -36.742188 29.484375 -37.578125 C 29.359375 -39.703125 29.035156 -41.164062 28.515625 -41.96875 C 28.003906 -42.769531 27.109375 -43.171875 25.828125 -43.171875 C 23.703125 -43.171875 21.644531 -41.628906 19.65625 -38.546875 C 17.664062 -35.460938 16.0625 -31.765625 14.84375 -27.453125 C 13.625 -23.148438 13.015625 -19.363281 13.015625 -16.09375 C 13.015625 -13.007812 13.363281 -10.9375 14.0625 -9.875 C 14.769531 -8.8125 16.054688 -8.28125 17.921875 -8.28125 Z M 17.921875 -8.28125 "/></g></g></g><g fill="#404559" fill-opacity="1"><g transform="translate(178.48754, 83.597713)"><g><path d="M 10.984375 0.578125 C 7.898438 0.578125 5.296875 -0.015625 3.171875 -1.203125 C 1.054688 -2.390625 -0.507812 -3.929688 -1.53125 -5.828125 C -2.5625 -7.722656 -3.078125 -9.695312 -3.078125 -11.75 C -3.078125 -13.875 -2.578125 -15.722656 -1.578125 -17.296875 C -0.585938 -18.867188 0.613281 -20.007812 2.03125 -20.71875 C 4.53125 -25.21875 6.710938 -29.757812 8.578125 -34.34375 C 10.441406 -38.9375 12.207031 -43.898438 13.875 -49.234375 L 28.140625 -51.171875 C 28.460938 -42.941406 29.007812 -34.039062 29.78125 -24.46875 C 30.09375 -20.613281 30.25 -17.820312 30.25 -16.09375 C 30.25 -14.613281 30.125 -13.394531 29.875 -12.4375 C 32.894531 -14.164062 35.207031 -15.769531 36.8125 -17.25 L 40.859375 -17.25 C 36.742188 -12.5 31.828125 -8.484375 26.109375 -5.203125 C 24.242188 -3.210938 21.945312 -1.75 19.21875 -0.8125 C 16.488281 0.113281 13.742188 0.578125 10.984375 0.578125 Z M 7.90625 -7.03125 C 10.28125 -7.03125 12.269531 -7.738281 13.875 -9.15625 C 15.476562 -10.570312 16.28125 -12.851562 16.28125 -16 C 16.28125 -17.925781 16.085938 -20.625 15.703125 -24.09375 C 15.066406 -31.414062 14.648438 -36.328125 14.453125 -38.828125 C 12.910156 -33.753906 10.3125 -27.6875 6.65625 -20.625 C 8.125 -19.851562 8.859375 -18.726562 8.859375 -17.25 C 8.859375 -16.03125 8.457031 -14.9375 7.65625 -13.96875 C 6.851562 -13.007812 5.84375 -12.53125 4.625 -12.53125 C 3.28125 -12.53125 2.414062 -12.945312 2.03125 -13.78125 C 2.03125 -11.46875 2.492188 -9.765625 3.421875 -8.671875 C 4.347656 -7.578125 5.84375 -7.03125 7.90625 -7.03125 Z M 7.90625 -7.03125 "/></g></g></g><g fill="#404559" fill-opacity="1"><g transform="translate(215.294198, 83.597713)"><g><path d="M 36.234375 0.578125 C 32.242188 0.578125 29.222656 -0.367188 27.171875 -2.265625 C 25.117188 -4.160156 24.09375 -6.875 24.09375 -10.40625 C 24.09375 -11.945312 24.285156 -13.617188 24.671875 -15.421875 L 25.4375 -19.171875 C 25.695312 -20.265625 25.828125 -21.453125 25.828125 -22.734375 C 25.828125 -25.816406 24.671875 -27.359375 22.359375 -27.359375 C 21.328125 -27.359375 20.25 -27.066406 19.125 -26.484375 C 18 -25.910156 16.695312 -25.015625 15.21875 -23.796875 L 10.21875 0 L -3.65625 0 L 10.3125 -65.53125 L 24.578125 -67.453125 L 17.34375 -33.53125 L 35.9375 -48.1875 L 45.484375 -48.1875 L 26.203125 -34.78125 C 27.171875 -35.039062 28.234375 -35.171875 29.390625 -35.171875 C 32.859375 -35.171875 35.488281 -34.109375 37.28125 -31.984375 C 39.082031 -29.867188 39.984375 -27.171875 39.984375 -23.890625 C 39.984375 -22.546875 39.859375 -21.328125 39.609375 -20.234375 L 38.546875 -15.421875 C 38.222656 -14.265625 38.0625 -13.234375 38.0625 -12.328125 C 38.0625 -9.953125 39.3125 -8.765625 41.8125 -8.765625 C 43.738281 -8.765625 45.28125 -9.453125 46.4375 -10.828125 C 47.601562 -12.210938 48.765625 -14.351562 49.921875 -17.25 L 53.96875 -17.25 C 49.976562 -5.363281 44.066406 0.578125 36.234375 0.578125 Z M 36.234375 0.578125 "/></g></g></g></svg>